<svg width="99" height="155" viewBox="0 0 99 155" fill="none" xmlns="http://www.w3.org/2000/svg">
<g id="Frame" opacity="0.12">
<path id="Vector" d="M147.317 82.3438L87.1876 22.2147C86.2912 21.3112 85.2243 20.5949 84.0487 20.1074C82.8731 19.6199 81.6124 19.371 80.3397 19.375H24.2188C22.9342 19.375 21.7021 19.8854 20.7938 20.7938C19.8854 21.7021 19.375 22.9342 19.375 24.2188V80.3397C19.371 81.6124 19.6199 82.8731 20.1074 84.0487C20.5949 85.2243 21.3112 86.2912 22.2147 87.1876L82.3438 147.317C83.2434 148.216 84.3114 148.93 85.4869 149.417C86.6624 149.904 87.9223 150.155 89.1947 150.155C90.467 150.155 91.727 149.904 92.9024 149.417C94.0779 148.93 95.146 148.216 96.0456 147.317L147.317 96.0456C148.216 95.146 148.93 94.0779 149.417 92.9024C149.904 91.727 150.155 90.467 150.155 89.1947C150.155 87.9223 149.904 86.6624 149.417 85.4869C148.93 84.3114 148.216 83.2434 147.317 82.3438ZM89.1917 140.469L29.0625 80.3397V29.0625H80.3397L140.469 89.1917L89.1917 140.469ZM58.125 50.8594C58.125 52.2964 57.6989 53.7012 56.9006 54.896C56.1022 56.0908 54.9675 57.0221 53.6399 57.572C52.3122 58.1219 50.8514 58.2658 49.442 57.9854C48.0326 57.7051 46.738 57.0131 45.7218 55.997C44.7057 54.9809 44.0138 53.6863 43.7334 52.2769C43.4531 50.8675 43.5969 49.4066 44.1469 48.079C44.6968 46.7514 45.628 45.6166 46.8229 44.8183C48.0177 44.0199 49.4224 43.5938 50.8594 43.5938C52.7864 43.5938 54.6344 44.3593 55.997 45.7218C57.3596 47.0844 58.125 48.9325 58.125 50.8594Z" fill="#6779D1"/>
</g>
</svg>
