<svg width="80" height="155" viewBox="0 0 80 155" fill="none" xmlns="http://www.w3.org/2000/svg">
<g id="Frame" opacity="0.2">
<path id="Vector" d="M77.5 53.2812C72.71 53.2812 68.0275 54.7017 64.0448 57.3628C60.062 60.024 56.9579 63.8065 55.1248 68.2319C53.2917 72.6573 52.8121 77.5269 53.7466 82.2248C54.6811 86.9228 56.9877 91.2382 60.3748 94.6252C63.7618 98.0123 68.0772 100.319 72.7752 101.253C77.4731 102.188 82.3427 101.708 86.7681 99.8752C91.1935 98.0422 94.976 94.938 97.6372 90.9552C100.298 86.9725 101.719 82.29 101.719 77.5C101.719 71.0768 99.1671 64.9167 94.6252 60.3748C90.0833 55.8329 83.9232 53.2812 77.5 53.2812ZM77.5 92.0312C74.626 92.0312 71.8165 91.179 69.4269 89.5823C67.0372 87.9856 65.1747 85.7161 64.0749 83.0609C62.975 80.4056 62.6873 77.4839 63.248 74.6651C63.8087 71.8463 65.1926 69.2571 67.2249 67.2249C69.2571 65.1926 71.8463 63.8087 74.6651 63.248C77.4839 62.6873 80.4056 62.975 83.0609 64.0749C85.7161 65.1747 87.9856 67.0372 89.5823 69.4269C91.179 71.8165 92.0312 74.626 92.0312 77.5C92.0312 81.3539 90.5003 85.05 87.7751 87.7751C85.05 90.5003 81.3539 92.0312 77.5 92.0312ZM145.312 33.9062H9.6875C8.40286 33.9062 7.17083 34.4166 6.26245 35.325C5.35407 36.2333 4.84375 37.4654 4.84375 38.75V116.25C4.84375 117.535 5.35407 118.767 6.26245 119.675C7.17083 120.583 8.40286 121.094 9.6875 121.094H145.312C146.597 121.094 147.829 120.583 148.738 119.675C149.646 118.767 150.156 117.535 150.156 116.25V38.75C150.156 37.4654 149.646 36.2333 148.738 35.325C147.829 34.4166 146.597 33.9062 145.312 33.9062ZM117.249 111.406H37.751C36.1247 105.906 33.1482 100.9 29.0927 96.8448C25.0371 92.7893 20.0313 89.8128 14.5312 88.1865V66.8135C20.0313 65.1872 25.0371 62.2107 29.0927 58.1552C33.1482 54.0996 36.1247 49.0938 37.751 43.5938H117.249C118.875 49.0938 121.852 54.0996 125.907 58.1552C129.963 62.2107 134.969 65.1872 140.469 66.8135V88.1865C134.969 89.8128 129.963 92.7893 125.907 96.8448C121.852 100.9 118.875 105.906 117.249 111.406ZM140.469 56.5326C134.659 54.0344 130.028 49.4036 127.53 43.5938H140.469V56.5326ZM27.4701 43.5938C24.9719 49.4036 20.3411 54.0344 14.5312 56.5326V43.5938H27.4701ZM14.5312 98.4674C20.3411 100.966 24.9719 105.596 27.4701 111.406H14.5312V98.4674ZM127.53 111.406C130.028 105.596 134.659 100.966 140.469 98.4674V111.406H127.53Z" fill="#47BE7D"/>
</g>
</svg>
