<svg width="25" height="24" viewBox="0 0 25 24" fill="none" xmlns="http://www.w3.org/2000/svg">
<g id="expire-solid-svgrepo-com 1" clip-path="url(#clip0_74_114)">
<g id="Layer 2">
<g id="icons Q2">
<g id="Group">
<g id="Group_2">
<path id="Vector" d="M8.03759 15.95C8.11432 15.8279 8.16373 15.6907 8.18243 15.5477C8.20114 15.4047 8.18869 15.2593 8.14594 15.1216C8.1032 14.9839 8.03117 14.857 7.93479 14.7497C7.83841 14.6424 7.71997 14.5573 7.58759 14.5C6.40812 14.01 5.41953 13.1503 4.77037 12.0504C4.12121 10.9504 3.84652 9.66948 3.98759 8.40005C4.12058 7.01293 4.73223 5.71536 5.71756 4.73002C6.7029 3.74469 8.00047 3.13304 9.38759 3.00005C10.4876 2.91163 11.5909 3.12578 12.578 3.61932C13.565 4.11285 14.3983 4.86697 14.9876 5.80005C15.1166 5.97666 15.2934 6.1128 15.4971 6.1925C15.7008 6.27221 15.923 6.29217 16.1376 6.25005C16.2859 6.20516 16.4217 6.12643 16.5343 6.02008C16.647 5.91373 16.7333 5.78266 16.7867 5.63721C16.84 5.49177 16.8588 5.33592 16.8416 5.18196C16.8244 5.028 16.7717 4.88015 16.6876 4.75005C15.9089 3.49332 14.7932 2.48031 13.4673 1.82622C12.1415 1.17214 10.6587 0.903217 9.18759 1.05005C7.42423 1.22394 5.7685 1.97833 4.48019 3.19485C3.19188 4.41137 2.3439 6.02119 2.06931 7.77169C1.79472 9.5222 2.10906 11.3143 2.963 12.8669C3.81695 14.4195 5.16217 15.6446 6.78759 16.35C7.00915 16.4453 7.25768 16.4573 7.48739 16.3838C7.71709 16.3103 7.9125 16.1563 8.03759 15.95Z" fill="#F1BC00"/>
<path id="Vector_2" d="M9.1875 5.75V8.25H6.6875C6.42228 8.25 6.16793 8.35536 5.98039 8.54289C5.79286 8.73043 5.6875 8.98478 5.6875 9.25C5.6875 9.51522 5.79286 9.76957 5.98039 9.95711C6.16793 10.1446 6.42228 10.25 6.6875 10.25H11.1875V5.75C11.1875 5.48478 11.0821 5.23043 10.8946 5.04289C10.7071 4.85536 10.4527 4.75 10.1875 4.75C9.92228 4.75 9.66793 4.85536 9.48039 5.04289C9.29286 5.23043 9.1875 5.48478 9.1875 5.75Z" fill="#F1BC00"/>
<path id="Vector_3" d="M23.7877 21.5001L16.2877 8.50007C16.198 8.35536 16.0728 8.23594 15.9241 8.15313C15.7753 8.07032 15.6079 8.02686 15.4377 8.02686C15.2674 8.02686 15.1 8.07032 14.9512 8.15313C14.8025 8.23594 14.6773 8.35536 14.5877 8.50007L7.08766 21.5001C7.00054 21.6509 6.95434 21.8219 6.95362 21.9961C6.95291 22.1703 6.99771 22.3417 7.08359 22.4932C7.16947 22.6448 7.29345 22.7713 7.44326 22.8602C7.59306 22.9491 7.76349 22.9973 7.93766 23.0001H22.9377C23.1118 22.9973 23.2823 22.9491 23.4321 22.8602C23.5819 22.7713 23.7058 22.6448 23.7917 22.4932C23.8776 22.3417 23.9224 22.1703 23.9217 21.9961C23.921 21.8219 23.8748 21.6509 23.7877 21.5001ZM15.4377 21.0001C15.2399 21.0001 15.0465 20.9414 14.8821 20.8315C14.7176 20.7217 14.5895 20.5655 14.5138 20.3828C14.4381 20.2 14.4183 19.999 14.4569 19.805C14.4955 19.611 14.5907 19.4328 14.7306 19.293C14.8704 19.1531 15.0486 19.0579 15.2426 19.0193C15.4366 18.9807 15.6376 19.0005 15.8203 19.0762C16.0031 19.1519 16.1592 19.2801 16.2691 19.4445C16.379 19.609 16.4377 19.8023 16.4377 20.0001C16.4377 20.2653 16.3323 20.5196 16.1448 20.7072C15.9572 20.8947 15.7029 21.0001 15.4377 21.0001ZM16.4377 17.0001C16.4377 17.2653 16.3323 17.5196 16.1448 17.7072C15.9572 17.8947 15.7029 18.0001 15.4377 18.0001C15.1724 18.0001 14.9181 17.8947 14.7306 17.7072C14.543 17.5196 14.4377 17.2653 14.4377 17.0001V13.0001C14.4377 12.7349 14.543 12.4805 14.7306 12.293C14.9181 12.1054 15.1724 12.0001 15.4377 12.0001C15.7029 12.0001 15.9572 12.1054 16.1448 12.293C16.3323 12.4805 16.4377 12.7349 16.4377 13.0001V17.0001Z" fill="#F1BC00"/>
</g>
</g>
</g>
</g>
</g>
<defs>
<clipPath id="clip0_74_114">
<rect width="24" height="24" fill="white" transform="translate(0.9375)"/>
</clipPath>
</defs>
</svg>
