<svg width="24" height="24" viewBox="0 0 24 24" fill="none" xmlns="http://www.w3.org/2000/svg">
<g id="Frame">
<path id="Vector" d="M12.7501 11.2499V16.4999C12.7501 16.6988 12.671 16.8896 12.5304 17.0303C12.3897 17.1709 12.199 17.2499 12.0001 17.2499C11.8011 17.2499 11.6104 17.1709 11.4697 17.0303C11.3291 16.8896 11.2501 16.6988 11.2501 16.4999V11.2499C11.2501 11.051 11.3291 10.8603 11.4697 10.7196C11.6104 10.579 11.8011 10.4999 12.0001 10.4999C12.199 10.4999 12.3897 10.579 12.5304 10.7196C12.671 10.8603 12.7501 11.051 12.7501 11.2499ZM22.4869 9.19775L21.1876 18.9487C21.1394 19.3091 20.962 19.6397 20.6883 19.879C20.4146 20.1184 20.0633 20.2502 19.6997 20.2499H4.30037C3.9368 20.2502 3.5855 20.1184 3.31183 19.879C3.03816 19.6397 2.86074 19.3091 2.81256 18.9487L1.51225 9.19869C1.48391 8.98672 1.50123 8.77114 1.56304 8.56641C1.62485 8.36168 1.72972 8.17253 1.87062 8.01165C2.01152 7.85077 2.1852 7.72188 2.37999 7.63363C2.57479 7.54537 2.7862 7.49979 3.00006 7.49994H6.40975L11.4376 1.75587C11.5079 1.67607 11.5945 1.61215 11.6915 1.56837C11.7885 1.52459 11.8937 1.50195 12.0001 1.50195C12.1065 1.50195 12.2117 1.52459 12.3086 1.56837C12.4056 1.61215 12.4922 1.67607 12.5626 1.75587L17.5904 7.49994H21.0001C21.2137 7.50007 21.4248 7.54583 21.6193 7.63415C21.8138 7.72247 21.9872 7.85131 22.1278 8.01205C22.2685 8.17279 22.3733 8.36172 22.435 8.56621C22.4968 8.77069 22.5142 8.98601 22.486 9.19775H22.4869ZM8.40287 7.49994H15.5972L12.0001 3.389L8.40287 7.49994ZM21.0001 8.99994H3.00006L4.30037 18.7499H19.6997L21.0001 8.99994ZM16.2038 11.1749L15.6788 16.4249C15.6684 16.5232 15.6776 16.6226 15.7058 16.7173C15.7339 16.8121 15.7805 16.9003 15.8429 16.977C15.9053 17.0537 15.9822 17.1172 16.0692 17.1641C16.1563 17.2109 16.2517 17.2401 16.3501 17.2499C16.3754 17.2513 16.4007 17.2513 16.426 17.2499C16.6118 17.2497 16.7908 17.1805 16.9285 17.0558C17.0662 16.9311 17.1527 16.7598 17.1713 16.5749L17.6963 11.3249C17.7162 11.127 17.6567 10.9293 17.5308 10.7753C17.4049 10.6213 17.223 10.5236 17.0251 10.5037C16.8271 10.4838 16.6294 10.5433 16.4754 10.6692C16.3214 10.7951 16.2237 10.977 16.2038 11.1749ZM7.79631 11.1749C7.77642 10.977 7.67872 10.7951 7.52471 10.6692C7.37069 10.5433 7.17298 10.4838 6.97506 10.5037C6.77714 10.5236 6.59523 10.6213 6.46935 10.7753C6.34347 10.9293 6.28392 11.127 6.30381 11.3249L6.82881 16.5749C6.84747 16.7606 6.93465 16.9326 7.07333 17.0574C7.21201 17.1822 7.39224 17.2509 7.57881 17.2499C7.6041 17.2513 7.62946 17.2513 7.65475 17.2499C7.75275 17.2401 7.84785 17.211 7.93462 17.1644C8.02139 17.1178 8.09813 17.0546 8.16046 16.9783C8.2228 16.9021 8.2695 16.8143 8.2979 16.72C8.3263 16.6257 8.33585 16.5267 8.326 16.4287L7.79631 11.1749Z" fill="#5014D0"/>
</g>
</svg>
