<svg width="24" height="25" viewBox="0 0 24 25" fill="none" xmlns="http://www.w3.org/2000/svg">
<g id="Frame">
<path id="Vector" d="M15.75 14.4234C15.75 14.6224 15.671 14.8131 15.5303 14.9538C15.3897 15.0944 15.1989 15.1734 15 15.1734H9C8.80109 15.1734 8.61032 15.0944 8.46967 14.9538C8.32902 14.8131 8.25 14.6224 8.25 14.4234C8.25 14.2245 8.32902 14.0338 8.46967 13.8931C8.61032 13.7525 8.80109 13.6734 9 13.6734H15C15.1989 13.6734 15.3897 13.7525 15.5303 13.8931C15.671 14.0338 15.75 14.2245 15.75 14.4234ZM15 10.6734H9C8.80109 10.6734 8.61032 10.7525 8.46967 10.8931C8.32902 11.0338 8.25 11.2245 8.25 11.4234C8.25 11.6224 8.32902 11.8131 8.46967 11.9538C8.61032 12.0944 8.80109 12.1734 9 12.1734H15C15.1989 12.1734 15.3897 12.0944 15.5303 11.9538C15.671 11.8131 15.75 11.6224 15.75 11.4234C15.75 11.2245 15.671 11.0338 15.5303 10.8931C15.3897 10.7525 15.1989 10.6734 15 10.6734ZM20.25 4.67345V20.4234C20.25 20.8213 20.092 21.2028 19.8107 21.4841C19.5294 21.7654 19.1478 21.9234 18.75 21.9234H5.25C4.85218 21.9234 4.47064 21.7654 4.18934 21.4841C3.90804 21.2028 3.75 20.8213 3.75 20.4234V4.67345C3.75 4.27562 3.90804 3.89409 4.18934 3.61279C4.47064 3.33148 4.85218 3.17345 5.25 3.17345H8.64937C9.07079 2.70163 9.58709 2.32413 10.1645 2.06566C10.7419 1.80719 11.3674 1.67358 12 1.67358C12.6326 1.67358 13.2581 1.80719 13.8355 2.06566C14.4129 2.32413 14.9292 2.70163 15.3506 3.17345H18.75C19.1478 3.17345 19.5294 3.33148 19.8107 3.61279C20.092 3.89409 20.25 4.27562 20.25 4.67345ZM9 6.17345H15C15 5.3778 14.6839 4.61474 14.1213 4.05213C13.5587 3.48952 12.7956 3.17345 12 3.17345C11.2044 3.17345 10.4413 3.48952 9.87868 4.05213C9.31607 4.61474 9 5.3778 9 6.17345ZM18.75 4.67345H16.2422C16.4128 5.15515 16.5 5.66243 16.5 6.17345V6.92345C16.5 7.12236 16.421 7.31313 16.2803 7.45378C16.1397 7.59443 15.9489 7.67345 15.75 7.67345H8.25C8.05109 7.67345 7.86032 7.59443 7.71967 7.45378C7.57902 7.31313 7.5 7.12236 7.5 6.92345V6.17345C7.50002 5.66243 7.58721 5.15515 7.75781 4.67345H5.25V20.4234H18.75V4.67345Z" fill="#2C4CF5"/>
</g>
</svg>
