<svg width="25" height="24" viewBox="0 0 25 24" fill="none" xmlns="http://www.w3.org/2000/svg">
<g id="Frame">
<path id="Vector" d="M22.4874 17.6335L14.2889 3.39569C14.0841 3.04687 13.7916 2.75764 13.4405 2.55668C13.0894 2.35572 12.6919 2.25 12.2874 2.25C11.8828 2.25 11.4853 2.35572 11.1343 2.55668C10.7832 2.75764 10.4907 3.04687 10.2858 3.39569L2.08738 17.6335C1.89026 17.9709 1.78638 18.3546 1.78638 18.7454C1.78638 19.1361 1.89026 19.5199 2.08738 19.8572C2.28963 20.2082 2.5816 20.499 2.93335 20.6998C3.28509 20.9006 3.68393 21.0043 4.08894 21.0001H20.4858C20.8905 21.0039 21.289 20.9001 21.6404 20.6993C21.9917 20.4985 22.2834 20.2079 22.4855 19.8572C22.6829 19.52 22.7871 19.1364 22.7875 18.7456C22.7878 18.3549 22.6842 17.9711 22.4874 17.6335ZM21.1871 19.1063C21.1156 19.2282 21.013 19.3289 20.8898 19.3981C20.7665 19.4673 20.6271 19.5025 20.4858 19.5001H4.08894C3.94764 19.5025 3.80823 19.4673 3.685 19.3981C3.56178 19.3289 3.45917 19.2282 3.3877 19.1063C3.32296 18.9967 3.28881 18.8717 3.28881 18.7444C3.28881 18.6171 3.32296 18.4922 3.3877 18.3826L11.5861 4.14475C11.659 4.02341 11.7621 3.92301 11.8853 3.8533C12.0085 3.7836 12.1477 3.74696 12.2893 3.74696C12.4308 3.74696 12.57 3.7836 12.6932 3.8533C12.8164 3.92301 12.9195 4.02341 12.9924 4.14475L21.1908 18.3826C21.255 18.4925 21.2885 18.6176 21.2878 18.7449C21.2872 18.8722 21.2524 18.997 21.1871 19.1063ZM11.5374 13.5001V9.75006C11.5374 9.55115 11.6164 9.36038 11.7571 9.21973C11.8977 9.07908 12.0885 9.00006 12.2874 9.00006C12.4863 9.00006 12.6771 9.07908 12.8177 9.21973C12.9584 9.36038 13.0374 9.55115 13.0374 9.75006V13.5001C13.0374 13.699 12.9584 13.8897 12.8177 14.0304C12.6771 14.171 12.4863 14.2501 12.2874 14.2501C12.0885 14.2501 11.8977 14.171 11.7571 14.0304C11.6164 13.8897 11.5374 13.699 11.5374 13.5001ZM13.4124 16.8751C13.4124 17.0976 13.3464 17.3151 13.2228 17.5001C13.0992 17.6851 12.9235 17.8293 12.7179 17.9144C12.5123 17.9996 12.2861 18.0219 12.0679 17.9784C11.8497 17.935 11.6492 17.8279 11.4919 17.6706C11.3346 17.5132 11.2274 17.3128 11.184 17.0945C11.1406 16.8763 11.1629 16.6501 11.248 16.4445C11.3332 16.239 11.4774 16.0633 11.6624 15.9397C11.8474 15.816 12.0649 15.7501 12.2874 15.7501C12.5858 15.7501 12.8719 15.8686 13.0829 16.0796C13.2939 16.2905 13.4124 16.5767 13.4124 16.8751Z" fill="#F1BC00"/>
</g>
</svg>
