<svg width="161" height="249" viewBox="0 0 161 249" fill="none" xmlns="http://www.w3.org/2000/svg">
<path d="M136.224 115.404C136.224 115.404 116.761 110.206 115.614 111.143C109.647 115.927 78.0872 112.179 78.0872 112.179L47.9704 120.729C47.9704 120.729 43.0779 156.999 39.7714 171.179C37.5671 180.611 45.8468 194.791 45.8468 194.791L56.4741 233.529L47.2894 248.79L136.26 248.745V115.413L136.224 115.404Z" fill="#FFC100"/>
<path d="M58.7583 157.116C58.7583 157.116 59.0271 157.116 59.5379 157.197C60.0486 157.278 60.8103 157.296 61.778 157.413C64.5132 157.714 67.2317 158.153 69.9233 158.728C73.3462 159.431 77.3696 160.449 81.8499 161.548C84.0901 162.089 86.4557 162.647 88.9199 163.143C90.1564 163.377 91.402 163.647 92.7013 163.773L93.678 163.881H94.6636C95.3267 163.881 95.9898 163.935 96.6619 163.881C101.666 163.604 106.638 162.908 111.528 161.8C116.008 160.899 120.094 159.899 123.499 159.152C126.904 158.404 129.673 157.827 131.564 157.539C132.522 157.359 133.284 157.287 133.786 157.215C134.288 157.143 134.565 157.089 134.565 157.089C134.565 157.089 133.481 157.152 131.546 157.431C129.61 157.71 126.841 158.233 123.427 158.953C120.013 159.674 115.963 160.62 111.447 161.539C106.568 162.634 101.608 163.324 96.6171 163.602C95.954 163.647 95.2909 163.602 94.6368 163.602H93.66C93.3375 163.602 93.0238 163.53 92.7013 163.494C91.4199 163.377 90.1654 163.107 88.9378 162.872C86.4736 162.386 84.117 161.827 81.8768 161.296C77.3965 160.215 73.3552 159.206 69.9322 158.539C66.2569 157.733 62.5175 157.256 58.7583 157.116Z" fill="#FAFAFA"/>
<path d="M54.9326 226.475L55.6316 225.998C56.0706 225.665 56.7517 225.223 57.6298 224.656C60.141 223.1 62.8155 221.828 65.6048 220.863C69.7447 219.446 74.0737 218.665 78.4454 218.548C83.8039 218.612 89.1514 219.051 94.4491 219.863C99.7589 220.66 105.107 221.174 110.471 221.403C114.862 221.549 119.254 221.141 123.544 220.187C126.434 219.528 129.225 218.486 131.842 217.088C132.738 216.575 133.455 216.187 133.912 215.836C134.369 215.485 134.602 215.358 134.602 215.358C134.602 215.358 134.342 215.503 133.876 215.791C133.41 216.079 132.711 216.494 131.788 216.989C129.157 218.346 126.362 219.355 123.473 219.989C119.197 220.914 114.824 221.301 110.453 221.142C105.098 220.902 99.7592 220.381 94.4581 219.584C89.1495 218.766 83.7889 218.335 78.4185 218.295C74.0217 218.42 69.67 219.222 65.5152 220.674C62.7174 221.66 60.0415 222.965 57.5402 224.566C56.6441 225.142 55.999 225.611 55.5688 225.953C55.1387 226.295 54.9326 226.475 54.9326 226.475Z" fill="#FAFAFA"/>
<path d="M53.678 239.259C53.678 239.259 53.9558 239.349 54.4935 239.493C55.0311 239.637 55.8107 239.844 56.8143 240.169C59.6367 241.09 62.4067 242.167 65.1118 243.394C69.1017 245.292 73.2636 246.8 77.5403 247.898C80.0892 248.479 82.6956 248.766 85.3092 248.754C88.1115 248.711 90.904 248.41 93.6515 247.853C99.2967 246.7 104.485 244.916 109.261 243.538C113.469 242.233 117.793 241.346 122.173 240.889C125.125 240.592 128.103 240.698 131.026 241.205C132.057 241.412 132.819 241.583 133.383 241.745C133.948 241.907 134.198 241.952 134.198 241.952C134.198 241.952 133.93 241.853 133.401 241.691C132.872 241.529 132.075 241.322 131.044 241.097C128.114 240.551 125.123 240.415 122.155 240.691C117.758 241.125 113.415 241.997 109.189 243.295C104.404 244.664 99.2161 246.43 93.5978 247.574C90.8646 248.125 88.0874 248.427 85.3002 248.475C82.7084 248.487 80.1234 248.206 77.594 247.637C73.3299 246.526 69.1781 245.018 65.1925 243.133C62.4774 241.916 59.6915 240.866 56.8501 239.989C55.8376 239.673 55.058 239.484 54.5024 239.358L53.678 239.259Z" fill="#FAFAFA"/>
<g opacity="0.3">
<path d="M53.8396 224.069C53.4005 210.43 51.1514 194.439 53.1138 181.728C50.3629 187.619 47.4327 200.763 47.4327 200.763C47.8978 202.984 48.4963 205.174 49.2249 207.322C50.7392 212.466 52.3163 218.943 53.8306 224.096" fill="black"/>
</g>
<path d="M48.2026 195.647C48.2026 195.647 48.4804 195.457 48.9822 195.079C49.707 194.521 50.464 194.007 51.2492 193.538C54.1853 191.853 57.4052 190.726 60.7475 190.214C65.6892 189.466 70.7188 189.53 75.6401 190.403C81.2047 191.304 87.1725 193.106 93.5077 194.619C99.8429 196.133 106.053 197.322 111.716 196.646C116.713 196.105 121.571 194.655 126.053 192.367C127.771 191.491 129.408 190.463 130.945 189.295C131.599 188.746 132.218 188.241 132.737 187.746C133.257 187.25 133.732 186.764 134.126 186.313L135.121 185.061C135.351 184.746 135.564 184.418 135.757 184.079C136.089 183.548 136.25 183.25 136.25 183.25C136.25 183.25 136.053 183.521 135.712 184.052C135.533 184.304 135.345 184.656 135.058 185.016L134.046 186.241C133.642 186.683 133.15 187.142 132.648 187.647C132.146 188.151 131.501 188.638 130.856 189.169C129.317 190.319 127.68 191.329 125.963 192.187C121.494 194.438 116.659 195.863 111.689 196.394C106.071 197.034 99.8787 195.854 93.5704 194.349C87.2621 192.845 81.2764 191.043 75.6491 190.151C70.7018 189.283 65.6459 189.24 60.6848 190.025C57.338 190.56 54.1198 191.718 51.1955 193.439C50.4149 193.925 49.6638 194.458 48.9464 195.034C48.4446 195.421 48.2026 195.647 48.2026 195.647Z" fill="#FAFAFA"/>
<path d="M67.1011 226.385C67.2599 226.453 67.425 226.504 67.594 226.538L69.0366 226.89C70.2822 227.187 72.0922 227.592 74.3414 228.079C78.8217 229.043 85.0941 230.304 91.9401 231.574C98.786 232.844 105.094 233.88 109.628 234.574C111.895 234.916 113.741 235.187 115.005 235.349L116.465 235.538C116.638 235.562 116.813 235.562 116.985 235.538C116.821 235.484 116.653 235.441 116.483 235.412L115.032 235.142L109.655 234.241C105.175 233.466 98.9025 232.385 91.9938 231.115C85.0852 229.844 78.8844 228.637 74.3772 227.745L69.0456 226.709L67.585 226.448C67.4266 226.409 67.2643 226.388 67.1011 226.385Z" fill="#263238"/>
<path d="M65.4163 194.421C65.409 194.606 65.4241 194.79 65.4612 194.971C65.5239 195.322 65.5508 195.872 65.7121 196.52C66.0986 198.412 66.6999 200.253 67.5042 202.007C68.7011 204.601 70.2348 207.025 72.0652 209.214C74.3106 211.902 76.8882 214.291 79.7355 216.322C84.9682 219.897 90.632 222.788 96.5905 224.926C98.8486 225.826 100.703 226.439 101.967 226.871L103.445 227.367C103.614 227.429 103.788 227.477 103.965 227.511C103.813 227.409 103.647 227.33 103.472 227.277L102.021 226.7L96.6442 224.619C90.7523 222.406 85.1401 219.504 79.9236 215.971C77.1375 213.944 74.6096 211.581 72.3967 208.935C70.5678 206.782 69.0255 204.398 67.8088 201.845C66.9848 200.116 66.3451 198.304 65.9002 196.439C65.5776 195.16 65.4612 194.421 65.4163 194.421Z" fill="#263238"/>
<path d="M106.86 11.6395C98.186 3.31525 84.7629 -1.32435 73.9384 3.86479C66.6624 7.35124 61.8774 14.4773 55.5601 19.5043C50.9544 23.1709 45.2106 26.0718 42.9077 31.5041C40.8826 36.2879 42.1102 41.7473 42.8002 46.9004C43.4901 52.0535 43.3199 58.0444 39.4399 61.4858C37.4058 63.2876 34.6728 64.0804 32.361 65.5128C27.7015 68.4047 25.0581 73.81 24.2158 79.2514C23.3735 84.6928 24.0993 90.2243 24.8251 95.6837L47.5851 99.2872L51.0977 92.8819L52.6838 102.72L81.6625 104.431L106.86 11.6395Z" fill="#263238"/>
<path d="M110.928 20.9192L111.187 27.2254L116.026 122.017C116.537 133.008 106.376 142.738 94.673 143.17C82.8449 143.639 77.7373 134.864 77.0384 123.765C76.3036 112.125 75.318 99.8823 75.318 99.8823C75.318 99.8823 60.2551 98.2877 55.9898 78.9096C53.8662 69.261 53.4002 53.2792 53.436 40.1712C53.4443 37.3795 54.0136 34.6183 55.1097 32.0532C56.2059 29.4882 57.8062 27.1724 59.8148 25.2447C61.8234 23.317 64.1987 21.8173 66.7981 20.8356C69.3975 19.8539 72.1675 19.4104 74.9416 19.5318L110.928 20.9192Z" fill="#FFBE9D"/>
<path d="M60.2106 51.7471C60.2432 52.4026 60.5295 53.0194 61.0084 53.4655C61.4873 53.9116 62.1207 54.1517 62.7734 54.1344C63.0918 54.1392 63.4079 54.0803 63.7034 53.9611C63.9989 53.8419 64.2679 53.6648 64.4947 53.4401C64.7215 53.2155 64.9016 52.9477 65.0245 52.6524C65.1474 52.3571 65.2107 52.0402 65.2107 51.7201C65.1782 51.0661 64.8931 50.4507 64.4162 50.0048C63.9392 49.5589 63.308 49.3178 62.6569 49.3327C62.3375 49.3255 62.0198 49.3826 61.7227 49.5009C61.4256 49.6191 61.1551 49.7959 60.9271 50.021C60.6991 50.246 60.5182 50.5147 60.3952 50.8111C60.2721 51.1076 60.2094 51.4258 60.2106 51.7471Z" fill="#263238"/>
<path d="M57.3425 48.2966C57.6741 48.6029 59.4841 47.0804 62.1634 46.9272C64.8426 46.7741 66.9035 47.9993 67.1724 47.6479C67.3068 47.4948 66.9573 46.9272 66.0612 46.3506C64.852 45.6076 63.4428 45.2613 62.0289 45.3597C60.6313 45.4399 59.2949 45.9635 58.2117 46.8551C57.4232 47.5488 57.1633 48.1524 57.3425 48.2966Z" fill="#263238"/>
<path d="M86.3212 50.9002C86.3559 51.555 86.6429 52.1704 87.1213 52.616C87.5997 53.0617 88.2319 53.3025 88.8839 53.2875C89.2034 53.2936 89.5208 53.2352 89.8174 53.1159C90.1141 52.9966 90.384 52.8187 90.6111 52.5929C90.8383 52.367 91.0182 52.0976 91.1401 51.8007C91.2621 51.5038 91.3237 51.1854 91.3212 50.8641C91.2865 50.211 91.0007 49.5969 90.5243 49.1515C90.0478 48.7061 89.4179 48.4642 88.7674 48.4768C88.4476 48.4708 88.1297 48.5291 87.8326 48.6483C87.5354 48.7675 87.265 48.9452 87.0371 49.171C86.8092 49.3967 86.6285 49.666 86.5056 49.9629C86.3826 50.2599 86.3199 50.5785 86.3212 50.9002Z" fill="#263238"/>
<path d="M83.7851 47.1977C84.1077 47.5131 85.9178 45.9905 88.606 45.8284C91.2942 45.6662 93.3462 46.9095 93.615 46.5581C93.7494 46.405 93.3999 45.8374 92.5039 45.2608C91.2937 44.52 89.8852 44.1738 88.4716 44.2698C87.073 44.3458 85.7353 44.8699 84.6543 45.7653C83.8658 46.45 83.6239 47.0626 83.7851 47.1977Z" fill="#263238"/>
<path d="M75.229 67.8194C75.229 67.6663 73.5444 67.4771 70.8204 67.2969C70.1304 67.2969 69.4763 67.1708 69.3239 66.7023C69.2258 65.9929 69.3446 65.2703 69.6644 64.6303L71.3759 59.2249C73.7505 51.5764 75.4172 45.3062 75.1125 45.2161C74.8078 45.126 72.6394 51.243 70.2648 58.8916C69.7003 60.7745 69.1537 62.5762 68.6429 64.2969C68.2649 65.147 68.1952 66.1033 68.4458 66.9996C68.5636 67.229 68.7309 67.429 68.9356 67.5849C69.1403 67.7408 69.3771 67.8486 69.6286 67.9005C70.0175 67.9804 70.4149 68.0107 70.8114 67.9906C73.5354 68.0627 75.229 67.9726 75.229 67.8194Z" fill="#263238"/>
<path d="M75.2819 99.9269C84.457 99.512 93.3378 96.5462 100.936 91.3594C100.936 91.3594 95.4165 105.188 75.8464 104.53L75.2819 99.9269Z" fill="#EB996E"/>
<path d="M77.486 72.468C78.2097 72.0731 79.0218 71.8707 79.8451 71.8802C80.6685 71.8897 81.4758 72.1106 82.1903 72.522C82.7118 72.8044 83.1717 73.189 83.5426 73.6533C83.9135 74.1175 84.188 74.6519 84.3498 75.2247C84.5035 75.781 84.4837 76.3713 84.293 76.9158C84.1023 77.4604 83.7499 77.933 83.2835 78.2697C82.6973 78.5426 82.0438 78.6343 81.4056 78.5333C80.7675 78.4322 80.1736 78.143 79.6993 77.7022C78.7084 76.7832 77.9102 75.6744 77.3516 74.4409C77.1527 74.1222 77.0187 73.767 76.9573 73.3959C76.929 73.2235 76.9512 73.0465 77.0212 72.8865C77.0913 72.7266 77.206 72.5905 77.3516 72.495" fill="#EB996E"/>
<path d="M84.7351 39.5672C84.8336 40.342 87.5397 40.5762 90.5416 41.6212C93.5434 42.6663 95.8552 44.0626 96.4108 43.5041C96.6527 43.2338 96.4108 42.4681 95.5147 41.5492C94.3652 40.3908 92.9587 39.5232 91.4107 39.0177C89.8732 38.4775 88.229 38.3168 86.6168 38.5492C85.3892 38.7474 84.6992 39.1888 84.7351 39.5672Z" fill="#263238"/>
<path d="M56.2674 44.1882C57.0022 44.5936 58.9556 43.2873 61.5363 42.4315C64.1169 41.5756 66.4288 41.2874 66.7424 40.5126C66.8678 40.1432 66.3302 39.6658 65.2012 39.4225C63.6584 39.1576 62.0735 39.3036 60.6043 39.8459C59.1214 40.3347 57.7946 41.2116 56.7602 42.3865C56.0255 43.2783 55.9179 43.981 56.2674 44.1882Z" fill="#263238"/>
<path d="M96.5903 9.83786C93.2211 14.7207 91.6619 18.4324 89.816 26.9548C88.92 31.1349 92.3698 33.9547 95.7838 36.3781C96.1507 36.6395 96.577 36.8041 97.0235 36.8569C97.4701 36.9098 97.9227 36.8492 98.3399 36.6807C98.7571 36.5122 99.1256 36.2411 99.4117 35.8924C99.6978 35.5437 99.8923 35.1283 99.9774 34.6845C99.9774 34.6845 99.2785 47.6753 104.108 53.3509C106.384 56.0086 106.59 59.504 106.16 62.4679C105.683 65.4992 104.323 68.3204 102.253 70.576C97.0204 76.4678 95.8197 85.8911 99.7803 92.7469C100.919 94.4354 101.968 96.1825 102.925 97.9811C103.412 99.0555 103.66 100.224 103.651 101.404C103.615 102.095 103.844 102.774 104.291 103.3C104.738 103.826 105.368 104.16 106.053 104.233C122.167 106.046 138.434 106.006 154.539 104.116C155.092 104.049 155.61 103.811 156.023 103.435C156.435 103.059 156.721 102.564 156.842 102.017C157.935 96.6117 155.632 90.801 152.774 85.9362C149.575 80.5308 145.551 75.3147 144.315 69.1255C143.15 63.3058 144.53 56.9365 142.012 51.5581C138.929 44.9636 131.017 42.0537 126.913 36.0448C123.033 30.3782 123.087 22.7657 119.592 16.8558C115.112 9.26129 104.538 6.04511 96.5993 9.82886" fill="#263238"/>
<path d="M95.9361 17.045C89.9056 20.4143 87.3249 28.0449 81.4826 31.7295C76.1599 35.0808 69.3678 34.4322 63.1312 33.7295C63.3193 32.3421 63.4985 30.9457 63.6867 29.5584C63.1711 30.8285 62.4269 31.9921 61.4914 32.9908C61.0185 33.4848 60.4216 33.841 59.7638 34.0218C59.106 34.2026 58.4118 34.2012 57.7548 34.0178C55.6401 33.234 55.2727 30.3692 55.7386 28.162C56.5766 24.6232 58.3435 21.3752 60.8551 18.7567C65.3333 13.8708 71.413 10.7714 77.9797 10.0269C84.5465 9.28226 91.1601 10.9423 96.6082 14.7027" fill="#263238"/>
<path d="M118.365 31.2067C117.165 28.2446 116.782 25.012 117.255 21.8492C117.728 18.6863 119.04 15.7102 121.053 13.2339C122.982 11.0108 125.517 9.40517 128.344 8.61574C131.171 7.82632 134.166 7.88777 136.959 8.79251C139.559 9.59146 141.828 11.2241 143.419 13.4411C146.331 17.6753 146 24.0626 143.267 28.4049C141.916 30.4544 140.119 32.1682 138.013 33.4168C135.906 34.6654 133.545 35.4161 131.107 35.6121C126.394 36.0625 121.654 34.7112 117.218 32.8463" fill="#263238"/>
<path d="M126.914 32.1888C126.842 32.1167 125.767 33.0897 123.768 34.2969C122.597 35.0069 121.364 35.6099 120.086 36.0987C116.94 37.2826 113.58 37.7801 110.229 37.5581C108.87 37.4728 107.52 37.2678 106.197 36.9455C103.938 36.387 102.612 35.7563 102.612 35.8464C102.886 36.0517 103.188 36.2156 103.508 36.3329C103.867 36.5148 104.239 36.6713 104.619 36.8014C105.115 36.9932 105.621 37.1586 106.134 37.2969C107.472 37.6734 108.843 37.9178 110.229 38.0266C113.64 38.2908 117.066 37.7701 120.247 36.5041C121.538 35.9935 122.777 35.36 123.948 34.6122C124.402 34.34 124.839 34.0391 125.256 33.7113C125.572 33.4742 125.871 33.2154 126.152 32.9366C126.435 32.7198 126.691 32.4686 126.914 32.1888Z" fill="#455A64"/>
<path d="M102.092 44.2877C102.437 44.432 102.798 44.5319 103.168 44.585C103.866 44.7382 104.879 44.9364 106.151 45.1165C109.467 45.6458 112.851 45.5542 116.134 44.8463C119.448 44.0808 122.422 42.2456 124.601 39.6211C125.244 38.8207 125.769 37.9318 126.161 36.9815C126.319 36.6416 126.428 36.2805 126.483 35.9094C125.902 37.1479 125.18 38.3148 124.333 39.3869C122.143 41.868 119.24 43.6028 116.026 44.3508C112.787 45.0443 109.454 45.1814 106.169 44.7562C104.906 44.621 103.884 44.4769 103.176 44.3868C102.82 44.3096 102.456 44.2763 102.092 44.2877Z" fill="#455A64"/>
<path d="M138.706 103.116C138.706 103.116 138.75 103.116 138.822 102.981C138.938 102.837 139.045 102.686 139.145 102.531C139.501 101.917 139.741 101.242 139.853 100.54C140.002 99.237 139.867 97.9171 139.457 96.6723C139.047 95.4275 138.372 94.2877 137.478 93.3325C136.261 92.0324 134.864 90.9157 133.329 90.0172C131.698 89.0082 129.861 88.0983 128.069 86.9632C126.159 85.8367 124.507 84.3171 123.222 82.5038C122.585 81.5362 122.152 80.4478 121.949 79.3056C121.758 78.1098 121.783 76.8893 122.021 75.7021C122.584 73.3649 123.336 71.0781 124.27 68.8643C125.147 66.7515 125.633 64.4952 125.704 62.2067C125.688 58.3125 124.39 54.5331 122.012 51.4591C120.456 49.3738 118.429 47.6908 116.098 46.5492L114.996 46.0628L114.1 45.7925C113.87 45.7083 113.633 45.648 113.392 45.6123C113.612 45.7223 113.839 45.8157 114.073 45.8916L114.888 46.2069L115.963 46.7294C118.222 47.9263 120.178 49.6274 121.68 51.7023C123.991 54.7231 125.25 58.4232 125.265 62.2337C125.179 64.4621 124.693 66.6565 123.831 68.7112C122.872 70.9394 122.102 73.2448 121.528 75.603C121.281 76.8408 121.256 78.1132 121.456 79.3597C121.651 80.5954 122.113 81.7731 122.809 82.8101C124.143 84.6517 125.85 86.1871 127.818 87.3146C129.611 88.4587 131.483 89.3506 133.105 90.3415C134.638 91.2235 136.033 92.3286 137.245 93.6208C138.121 94.535 138.794 95.6267 139.217 96.8229C139.64 98.0191 139.805 99.2924 139.7 100.558C139.546 101.47 139.207 102.341 138.706 103.116Z" fill="#455A64"/>
<path d="M112.791 104.324C112.989 104.232 113.175 104.117 113.346 103.981C113.826 103.594 114.223 103.113 114.511 102.567C114.983 101.689 115.252 100.716 115.3 99.72C115.356 98.4023 115.168 97.0856 114.744 95.8371C113.848 92.9813 111.384 90.4318 109.484 87.2156C108.458 85.5514 107.892 83.6418 107.845 81.6841C107.883 79.5802 108.362 77.508 109.251 75.6031C110.981 71.6032 113.732 68.396 115.587 65.0357C116.508 63.4667 117.227 61.7867 117.728 60.0357C118.149 58.4936 118.259 56.8824 118.051 55.297C117.825 52.9739 116.741 50.8204 115.013 49.2611C114.531 48.8664 113.993 48.5447 113.418 48.3061C113.221 48.2135 113.014 48.1469 112.8 48.1079C114.214 48.7153 115.426 49.7164 116.293 50.9934C117.16 52.2703 117.645 53.7698 117.692 55.315C117.872 56.8505 117.744 58.4067 117.316 59.8916C116.812 61.6099 116.092 63.2567 115.174 64.7924C114.278 66.423 113.105 68.0627 111.958 69.7834C110.733 71.5506 109.672 73.4262 108.786 75.3869C107.885 77.3673 107.409 79.5158 107.388 81.6931C107.449 83.7344 108.052 85.7219 109.135 87.4498C111.106 90.7381 113.615 93.2246 114.458 95.9543C114.888 97.1553 115.094 98.4257 115.067 99.702C115.048 100.665 114.818 101.612 114.395 102.477C113.993 103.197 113.446 103.826 112.791 104.324Z" fill="#455A64"/>
<path d="M71.9574 32.0265C71.9574 32.0265 72.0828 32.0265 72.3158 31.8554C72.6485 31.664 72.9661 31.4471 73.2656 31.2067C74.3461 30.2982 75.2564 29.2029 75.9538 27.9725C76.962 26.1485 77.8047 24.2369 78.4718 22.2609C78.884 21.1618 79.323 20.0267 79.8786 18.8915C80.4547 17.7282 81.1419 16.6239 81.9306 15.5943C84.7227 11.9493 88.5751 9.26954 92.9522 7.92769C94.7772 7.41838 96.6466 7.08652 98.5347 6.9367C98.0221 6.88633 97.506 6.88633 96.9934 6.9367C95.5942 7.01943 94.207 7.24583 92.8536 7.61237C90.8427 8.17233 88.9252 9.02845 87.1636 10.1529C83.8395 12.2212 81.1601 15.1867 79.4306 18.7114C78.875 19.8735 78.4359 21.0266 78.0327 22.1257C77.3936 24.0899 76.5933 25.9974 75.6402 27.8284C74.9866 29.0483 74.1356 30.1504 73.1223 31.0896C72.3964 31.7112 71.9305 31.9815 71.9574 32.0265Z" fill="#455A64"/>
<path d="M58.3553 32.3602C58.5339 32.3591 58.7116 32.3349 58.884 32.2881C59.3814 32.1945 59.8678 32.0496 60.3356 31.8557C62.0656 31.1471 63.6173 30.0609 64.8787 28.6755C66.7405 26.6301 68.2924 24.32 69.4844 21.8197C70.9271 19.072 72.307 15.9279 74.5114 13.1622C76.5987 10.5754 79.4069 8.67434 82.5759 7.70278C85.1795 6.91886 87.871 6.46786 90.5868 6.36044C92.9076 6.23432 94.7983 6.27036 96.1065 6.27937H97.6388C97.8144 6.30087 97.9919 6.30087 98.1675 6.27937C97.9973 6.23668 97.8231 6.21252 97.6478 6.20729C97.3073 6.20729 96.7517 6.13522 96.1424 6.1082C94.8431 6.03612 92.9524 5.94604 90.6047 6.02712C87.8499 6.08585 85.1145 6.50684 82.4684 7.27936C79.1875 8.25066 76.276 10.1979 74.1171 12.8649C71.85 15.7117 70.4791 18.8918 69.0722 21.6306C67.9061 24.1048 66.3977 26.4008 64.5919 28.4503C63.378 29.8276 61.8918 30.9353 60.2281 31.7025C59.0721 32.216 58.3463 32.3602 58.3553 32.3602Z" fill="#455A64"/>
<path d="M37.4062 96.7377C37.46 96.7377 37.1284 96.044 36.7611 94.7738C36.2398 92.9834 35.9832 91.1258 35.9994 89.2603C36.0017 86.4991 36.6138 83.7729 37.7915 81.2784C38.5113 79.8142 39.4147 78.4487 40.4797 77.2154C41.5729 75.9181 42.8274 74.6839 44.064 73.3866C45.3268 72.1393 46.4922 70.796 47.5497 69.3686C48.5135 68.0173 49.3391 66.5715 50.0139 65.0534C51.1444 62.4857 51.8351 59.7444 52.0569 56.9453C52.1978 55.0525 52.1075 53.1495 51.7881 51.2787C51.6895 50.6211 51.5551 50.1166 51.4744 49.7743C51.4402 49.5975 51.3861 49.4252 51.3132 49.2607C51.2594 49.2607 51.4386 49.9905 51.5909 51.3058C51.8263 53.1587 51.8533 55.0323 51.6716 56.8913C51.5504 58.1741 51.3286 59.4453 51.0085 60.6931C50.6543 62.1257 50.1683 63.5221 49.5569 64.8642C48.887 66.3481 48.0704 67.7606 47.1196 69.0804C46.0696 70.4807 44.9164 71.7998 43.6697 73.0263C42.4152 74.3236 41.1518 75.5758 40.0855 76.9001C37.1329 80.3272 35.5381 84.7269 35.6051 89.2603C35.6073 91.1552 35.9098 93.0377 36.5012 94.8369C36.6661 95.3229 36.8606 95.7982 37.0836 96.2603C37.1691 96.4334 37.2776 96.5941 37.4062 96.7377Z" fill="#455A64"/>
<path d="M143.741 26.8825C143.746 26.4612 143.686 26.0417 143.562 25.6393C143.292 24.5287 142.882 23.4571 142.343 22.4501C141.525 20.8521 140.386 19.4424 138.998 18.3103C137.61 17.1782 136.003 16.3484 134.279 15.8736C132.051 15.4285 129.743 15.6427 127.634 16.4902C125.525 17.3377 123.706 18.7821 122.397 20.6483C122.144 20.9699 121.942 21.3284 121.797 21.7114C122.709 20.5973 123.73 19.5772 124.843 18.6664C126.15 17.6569 127.659 16.9434 129.266 16.5749C130.873 16.2063 132.54 16.1915 134.153 16.5313C135.802 16.9855 137.344 17.7651 138.69 18.8246C140.036 19.8841 141.159 21.2023 141.994 22.7024C142.704 24.038 143.289 25.4375 143.741 26.8825Z" fill="#455A64"/>
<path d="M132.944 32.6215C132.932 31.6473 132.796 30.6785 132.541 29.7387C132.135 27.4218 131.141 25.2496 129.656 23.4324C128.913 22.5992 127.938 22.0095 126.858 21.7396C125.778 21.4697 124.642 21.5322 123.598 21.9189C122.963 22.1879 122.419 22.6352 122.03 23.2072C121.761 23.6306 121.681 23.9009 121.707 23.9189C122.251 23.2425 122.949 22.7078 123.741 22.3604C124.712 22.0708 125.744 22.0627 126.719 22.3368C127.694 22.6109 128.572 23.1562 129.252 23.9099C130.656 25.6491 131.644 27.6897 132.138 29.8738C132.336 30.8092 132.605 31.7278 132.944 32.6215Z" fill="#455A64"/>
<path d="M117.961 14.3422C117.809 14.4683 119.754 17.207 121.16 21.207C122.567 25.2069 122.755 28.7024 122.952 28.6844C123.15 28.6664 123.159 25.0808 121.716 20.9637C120.273 16.8467 118.051 14.2611 117.961 14.3422Z" fill="#FFC100"/>
<path d="M160.068 78.0445C159.548 78.6894 158.877 79.194 158.114 79.5129C157.217 79.8753 156.244 80.0084 155.283 79.9003C154.008 79.7774 152.801 79.2649 151.824 78.4319C149.62 76.6301 148.41 73.0896 148.509 69.3328C148.509 67.441 148.768 65.459 148.957 63.396C149.211 61.2569 149.175 59.0929 148.849 56.9636C148.663 55.882 148.325 54.8325 147.845 53.8465C147.357 52.9053 146.735 52.0405 146 51.279C144.571 49.8771 142.92 48.7233 141.116 47.8646C139.413 46.9637 137.756 46.3061 136.215 45.6214C134.789 44.9952 133.419 44.2477 132.119 43.3872C130.194 42.2017 128.626 40.5103 127.585 38.4953C127.256 37.7361 127.015 36.941 126.869 36.126C126.869 36.126 126.869 36.3422 126.949 36.7656C127.053 37.3864 127.233 37.9918 127.487 38.5674C128.498 40.633 130.066 42.3716 132.012 43.5854C133.316 44.4616 134.692 45.2241 136.125 45.8646C137.657 46.5583 139.315 47.261 141 48.1169C142.772 48.9735 144.394 50.1146 145.802 51.4952C146.52 52.2458 147.124 53.0988 147.595 54.0267C148.061 54.991 148.393 56.0158 148.58 57.0717C149.324 61.396 148.231 65.5671 148.249 69.3869C148.267 73.2067 149.414 76.7742 151.699 78.639C152.713 79.4909 153.965 80.0041 155.283 80.1075C156.266 80.2074 157.259 80.0555 158.168 79.6661C158.954 79.3577 159.625 78.8095 160.086 78.0985L160.068 78.0445Z" fill="#263238"/>
<path d="M46.4112 14.5135C46.3281 14.6881 46.2678 14.8728 46.2319 15.063C46.118 15.6152 46.1551 16.188 46.3395 16.7206C46.6928 17.6992 47.3604 18.5314 48.2366 19.0861C49.1128 19.6408 50.1478 19.8862 51.1782 19.7837C52.5963 19.6136 53.9332 19.0277 55.0223 18.099C56.258 17.0492 57.3013 15.79 58.1048 14.3783C59.0009 12.9279 59.8073 11.3243 60.8736 9.87386C61.9604 8.32009 63.2402 6.91231 64.6819 5.68472C68.0011 2.86107 72.0545 1.05109 76.3637 0.468439C80.6729 -0.114213 85.0579 0.554791 89.0011 2.39647C89.6463 2.70277 90.1481 2.95502 90.4707 3.14421C90.7933 3.3334 90.9814 3.40546 90.9814 3.40546C90.3673 2.9888 89.7234 2.61843 89.0549 2.29737C87.2261 1.40335 85.2847 0.763848 83.2842 0.39649C79.9703 -0.23709 76.5567 -0.110018 73.2984 0.768223C70.0401 1.64646 67.0212 3.25319 64.4669 5.4685C63.0055 6.70948 61.7103 8.13578 60.6138 9.71171C59.5385 11.2432 58.741 12.8468 57.8539 14.2882C57.0664 15.6773 56.0481 16.9205 54.8431 17.9639C53.7898 18.8691 52.4982 19.448 51.1245 19.6305C49.9876 19.7611 48.8453 19.4376 47.9434 18.7296C47.2467 18.2113 46.7144 17.5009 46.4112 16.6846C46.2194 16.1702 46.1638 15.6145 46.2499 15.072C46.3574 14.7026 46.4112 14.5135 46.4112 14.5135Z" fill="#263238"/>
<path d="M103.176 97.3953L103.006 97.3142L102.495 97.08C102.038 96.8638 101.375 96.5485 100.56 96.08C98.2026 94.7867 96.2179 92.903 94.798 90.6116C93.8624 89.0252 93.3185 87.2366 93.212 85.3954C93.1563 84.3725 93.2652 83.3473 93.5346 82.3594C93.8546 81.3272 94.3161 80.3448 94.9056 79.4405C96.2976 77.5614 97.9136 75.8611 99.7174 74.3775C100.614 73.5577 101.572 72.7469 102.468 71.855C103.405 70.9665 104.232 69.9684 104.933 68.8821C105.279 68.3285 105.578 67.7469 105.829 67.1433C106.042 66.5308 106.186 65.8962 106.259 65.2515C106.417 63.99 106.276 62.7088 105.847 61.5128C104.94 59.3287 103.76 57.27 102.334 55.3867C101.099 53.6682 100.121 51.7773 99.4307 49.7742C98.8538 48.0254 98.5074 46.2081 98.4002 44.3688C98.2416 41.6899 98.6069 39.0056 99.4755 36.468C99.7029 35.7764 99.9722 35.0994 100.282 34.441C100.497 33.9905 100.596 33.7383 100.596 33.7383C100.596 33.7383 100.461 33.9725 100.237 34.4139C99.8919 35.0647 99.5925 35.739 99.3411 36.432C98.4298 38.976 98.0337 41.6776 98.1762 44.3778C98.3014 46.2416 98.672 48.0805 99.2784 49.8462C99.9726 51.8718 100.953 53.7864 102.191 55.5308C103.596 57.4001 104.761 59.4402 105.658 61.6029C106.07 62.7562 106.205 63.9908 106.053 65.2064C105.981 65.8211 105.839 66.4256 105.631 67.0082C105.385 67.5965 105.085 68.1604 104.735 68.6929C104.051 69.7647 103.239 70.748 102.316 71.6208C101.42 72.5217 100.524 73.3144 99.6278 74.1343C97.8053 75.6327 96.1767 77.3548 94.7801 79.2603C94.1772 80.1886 93.7095 81.1988 93.3912 82.2603C93.1178 83.2721 93.0089 84.3216 93.0686 85.3684C93.1931 87.2461 93.7581 89.0676 94.7174 90.6836C96.1537 92.9826 98.1652 94.862 100.551 96.134C101.385 96.6348 102.264 97.057 103.176 97.3953Z" fill="#263238"/>
<path d="M31.3932 61.6483L31.2587 61.6933C31.1226 61.739 30.993 61.8027 30.8734 61.8825C30.4173 62.2016 30.08 62.6644 29.9146 63.1978C29.7719 63.6176 29.7237 64.0641 29.7732 64.5049C29.8228 64.9458 29.969 65.3701 30.2014 65.7473C30.5389 66.2272 30.9881 66.6169 31.5097 66.8823C32.0314 67.1476 32.6097 67.2807 33.1942 67.2698C33.8984 67.27 34.5951 67.1245 35.241 66.8424C35.8869 66.5604 36.4682 66.1477 36.9488 65.6302C38.0567 64.4634 38.8924 63.0631 39.395 61.5311C40.5689 58.333 40.6047 54.5312 40.2373 50.7204C39.8699 46.9097 39.3412 43.207 39.5205 39.8647C39.5939 38.2873 39.8772 36.7269 40.3628 35.2251C40.8022 33.9321 41.4401 32.7162 42.2535 31.6215C43.3966 29.9851 45.0007 28.7301 46.8592 28.018C47.5504 27.7892 48.2614 27.6263 48.9829 27.5315C48.9829 27.5315 48.7858 27.5315 48.4184 27.5315C48.1859 27.5435 47.955 27.5766 47.7284 27.6306C47.4223 27.6854 47.1222 27.7699 46.8324 27.8828C44.9245 28.5668 43.2725 29.825 42.1011 31.4864C41.2648 32.6012 40.6086 33.8417 40.1567 35.162C39.6493 36.682 39.3479 38.2638 39.2606 39.8647C39.0366 43.243 39.5832 46.9187 39.9595 50.7655C40.3359 54.6123 40.2911 58.351 39.1531 61.5041C38.6673 62.9991 37.8596 64.3679 36.7875 65.5131C36.3318 66.0145 35.7786 66.4164 35.162 66.6938C34.5454 66.9712 33.8787 67.1182 33.2032 67.1257C32.6372 67.1434 32.0754 67.0223 31.5664 66.7727C31.0574 66.5231 30.6166 66.1526 30.282 65.6933C30.0579 65.3364 29.9144 64.9344 29.8618 64.5156C29.8091 64.0969 29.8486 63.6716 29.9774 63.2699C30.1267 62.748 30.4413 62.2894 30.8734 61.9636C31.1781 61.7203 31.4021 61.6753 31.3932 61.6483Z" fill="#263238"/>
<path d="M116.008 113.585C116.008 113.585 108.687 128.512 93.1945 127.855C77.7015 127.197 76.0886 113.44 76.0886 113.44L67.4147 123.035L76.0886 144.503L88.8396 150.044L109.61 144.503L115.166 135.656L128.912 119.305L116.008 113.585Z" fill="#FFC100"/>
<path d="M64.4397 129.657H65.2283C65.9608 129.722 66.6846 129.864 67.3878 130.08C68.4927 130.456 69.551 130.957 70.5419 131.576C71.7068 132.287 72.9613 133.215 74.3502 134.278C75.8382 135.439 77.4243 136.467 79.0904 137.35C80.0423 137.807 81.0316 138.181 82.0474 138.467C83.1253 138.759 84.2252 138.961 85.336 139.071C89.9149 139.549 94.9597 138.531 99.915 136.801C104.87 135.071 109.512 133.098 113.938 132.053C116.03 131.556 118.181 131.356 120.327 131.459C122.197 131.523 124.059 131.722 125.901 132.053C128.58 132.509 131.189 133.315 133.661 134.449C134.1 134.648 134.467 134.864 134.79 135.044C135.066 135.188 135.333 135.35 135.587 135.531L136.241 135.954C135.464 135.32 134.612 134.785 133.706 134.359C131.242 133.174 128.628 132.334 125.937 131.864C124.088 131.516 122.216 131.303 120.336 131.224C118.169 131.111 115.998 131.305 113.885 131.801C109.404 132.846 104.79 134.828 99.8254 136.531C94.8612 138.233 89.888 139.233 85.3629 138.819C84.2656 138.706 83.1782 138.51 82.1101 138.233C81.1081 137.957 80.1333 137.589 79.1979 137.134C77.532 136.276 75.9482 135.266 74.4667 134.116C73.0688 133.098 71.7785 132.179 70.6226 131.477C69.6157 130.866 68.5423 130.373 67.4236 130.008C66.7078 129.806 65.9711 129.688 65.2283 129.657C64.6996 129.657 64.4397 129.657 64.4397 129.657Z" fill="#FAFAFA"/>
<path d="M62.5942 78.0352L56.6981 90.0171L56.1605 96.5035C56.1605 96.5035 55.6228 94.5486 54.9597 92.7108C54.2967 90.8729 53.8755 85.1253 53.8755 85.1253L58.1766 76.1614C58.1766 76.1614 60.7125 71.2155 57.6479 68.9092L53.0959 74.9542C53.0959 74.9542 56.6802 68.0083 53.302 66.1165L49.4579 70.4587C49.5965 70.2373 49.6855 69.9881 49.7187 69.7286C49.7519 69.4691 49.7284 69.2054 49.6499 68.9559C49.5715 68.7064 49.4399 68.4771 49.2644 68.2839C49.0889 68.0907 48.8736 67.9383 48.6335 67.8372L38.9291 80.3505L40.1388 98.7738L43.4632 117.945L41.8772 120.81L59.1085 132.809C59.1085 132.809 64.4849 120.963 64.8613 117.044C65.2376 113.125 61.3935 92.3594 61.3935 92.3594C61.3935 92.3594 65.0584 84.9811 64.5835 82.0262C64.1086 79.0713 62.5942 78.0352 62.5942 78.0352Z" fill="#FFBE9D"/>
<path d="M57.7195 135.683L57.827 135.512L58.0958 134.962L59.1084 132.809C60.0044 130.908 61.241 128.107 62.6926 124.458C63.5274 122.443 64.2396 120.38 64.8253 118.278C65.0984 117.045 65.156 115.774 64.9955 114.521C64.888 113.242 64.7446 111.909 64.5654 110.539C63.8575 105.062 62.845 98.8998 61.6442 92.1431V92.3413C62.7693 90.0918 63.7016 87.75 64.431 85.3414C64.6164 84.7029 64.7601 84.0528 64.8611 83.3954C64.9093 83.0493 64.9303 82.6999 64.9238 82.3504V81.8189L64.8253 81.3054C64.6862 80.6203 64.4572 79.9568 64.1442 79.3324C63.8293 78.6653 63.3737 78.0751 62.8091 77.6027L62.5045 77.3595L62.3163 77.7288C60.4435 81.5306 58.4542 85.5305 56.4112 89.6656V89.7287V89.7918C56.232 91.8278 56.0528 94.044 55.8646 96.2872L56.5635 96.2151C56.2858 95.3142 55.999 94.4134 55.6675 93.5125L55.2374 92.1521C55.1045 91.6996 54.9997 91.2393 54.9237 90.7737C54.6012 88.8729 54.413 86.8909 54.2606 84.9089V85.0981L56.8324 79.6928C57.2714 78.7919 57.7284 77.891 58.1585 76.927C58.3736 76.4676 58.6245 76.0262 58.8216 75.4946C59.025 74.9999 59.1927 74.4911 59.3234 73.9721C59.585 73.0004 59.6369 71.9837 59.4758 70.9902C59.3075 69.9558 58.7491 69.0265 57.9166 68.3956L57.6209 68.1794L57.4058 68.4677L52.8538 74.5217L53.4721 74.909C54.2234 73.4297 54.7576 71.8487 55.0581 70.2154C55.2194 69.3794 55.2194 68.5199 55.0581 67.6839C54.9666 67.2455 54.7835 66.8317 54.5209 66.4698C54.2582 66.1079 53.9221 65.8063 53.5348 65.5848L53.275 65.4407L53.0868 65.6659L49.1889 70.3776L49.7714 70.7649C50.0396 70.2053 50.1274 69.5754 50.0223 68.9632C49.9555 68.6465 49.8173 68.3495 49.6185 68.0949C49.4197 67.8404 49.1654 67.635 48.8753 67.4947L48.6154 67.3596L48.4362 67.5848L38.7318 79.954L38.6512 80.0621V80.1793C39.0992 86.8278 39.5473 92.9899 39.8967 98.6295C41.205 105.999 42.343 112.422 43.3018 117.782V117.647L36.9397 129.485L35.273 132.638L34.8519 133.458C34.804 133.551 34.7621 133.648 34.7264 133.746C34.7969 133.667 34.8572 133.579 34.9056 133.485L35.3716 132.692L37.1637 129.593C38.687 126.89 40.9003 122.873 43.705 117.882V117.819V117.746C42.8089 112.341 41.7068 105.954 40.4523 98.5665C40.1028 92.9269 39.7085 86.7558 39.2964 80.1162L39.2247 80.3414L48.9739 67.9902L48.5348 68.0893C48.7323 68.1836 48.906 68.3218 49.0426 68.4935C49.1792 68.6652 49.2752 68.8658 49.3233 69.0803C49.3955 69.5433 49.3268 70.0175 49.1262 70.4406L48.0599 72.819L49.7086 70.828L53.5796 66.1614L53.1227 66.2425C53.4237 66.4153 53.6844 66.6511 53.8869 66.934C54.0894 67.2168 54.2291 67.5402 54.2965 67.8821C54.431 68.6237 54.431 69.3837 54.2965 70.1253C54.0077 71.6928 53.4946 73.2101 52.7732 74.6298L53.3825 75.0262L57.9345 68.9812L57.4238 69.0532C58.1096 69.5715 58.5689 70.3368 58.7051 71.1884C58.8467 72.0899 58.7948 73.0114 58.5528 73.891C58.434 74.3768 58.2783 74.8527 58.0868 75.3144C57.9076 75.7739 57.6657 76.2153 57.4506 76.7018L56.1245 79.4676L53.5438 84.8729L53.499 84.963V85.0621C53.6603 87.0711 53.8485 89.053 54.189 90.999C54.2665 91.4917 54.3742 91.9791 54.5115 92.4584C54.6639 92.9269 54.8072 93.3593 54.9506 93.8368L55.8019 96.5394L56.3574 98.2872L56.5008 96.4854C56.689 94.2422 56.8682 92.035 57.0385 89.999V90.1251C59.0725 85.99 61.0439 82.0171 62.9166 78.1793L62.4328 78.3054C62.9032 78.7117 63.2846 79.2117 63.5529 79.7739C63.8427 80.3438 64.0566 80.9496 64.1891 81.5756C64.3865 82.8243 64.2726 84.1028 63.8575 85.2963C63.1544 87.6679 62.2552 89.9763 61.1693 92.1972V92.2872V92.3863C62.3969 99.116 63.4543 105.278 64.198 110.728C64.3862 112.089 64.5385 113.431 64.655 114.692C64.8212 115.892 64.7787 117.111 64.5296 118.296C63.9745 120.387 63.2922 122.442 62.4865 124.449C61.0707 128.107 59.8611 130.926 59.0456 132.854C58.6335 133.8 58.3288 134.539 58.1496 135.044L57.9166 135.602C57.7284 135.62 57.7105 135.683 57.7195 135.683Z" fill="#EB996E"/>
<path d="M48.5171 94.6838C48.6462 93.6278 48.6462 92.5598 48.5171 91.5037C48.4185 89.5397 48.2213 86.8371 47.9525 83.8551L47.8808 83.0353L47.8181 83.2786C49.3773 80.9452 50.7393 78.8462 51.6891 77.3146C52.2608 76.5263 52.7333 75.67 53.0959 74.7651C52.4088 75.4457 51.807 76.208 51.3038 77.0354C50.2465 78.4948 48.8217 80.5398 47.2536 82.8641L47.173 82.9722V83.0984C47.173 83.3596 47.2177 83.6389 47.2446 83.9182C47.5045 86.9001 47.7823 89.6028 48.0152 91.5487C48.0641 92.6095 48.2324 93.6612 48.5171 94.6838Z" fill="#EB996E"/>
<path d="M43.4359 89.5667C43.5463 88.6 43.5463 87.6237 43.4359 86.6569C43.3373 84.8551 43.1581 82.3596 42.9162 79.5578L42.8355 79.8191L43.3821 79.1164C45.1743 76.72 46.823 74.5309 47.961 72.9273C48.6404 72.0973 49.2208 71.1903 49.6904 70.2246C48.8847 70.9287 48.1658 71.7271 47.5488 72.603C46.3033 74.1255 44.6187 76.2606 42.7907 78.657C42.6115 78.8912 42.4323 79.1344 42.2531 79.3596L42.1724 79.4768V79.6209C42.4323 82.4137 42.7011 84.9001 42.9251 86.6929C42.9734 87.6688 43.145 88.6345 43.4359 89.5667Z" fill="#EB996E"/>
<path d="M63.7581 128.801L39.7345 118.603C39.7345 118.603 4.78799 197.349 2.7808 202.44C-2.04003 214.43 2.72704 232.223 15.8454 231.899C22.0283 231.755 39.7345 229.34 44.5643 210.43C46.0787 204.503 50.3708 190.295 50.3708 190.295L63.7581 128.801Z" fill="#FFC100"/>
<path d="M39.7351 118.603C39.8668 118.695 40.008 118.774 40.1562 118.837L41.4197 119.449L46.2315 121.738L63.4897 129.846L63.3822 129.629C61.9575 137.683 60.1833 147.26 58.0058 157.44C54.8875 172.224 51.4825 185.476 48.866 195.016C47.5308 199.764 46.4466 203.611 45.6939 206.304C45.3175 207.611 45.0308 208.638 44.7978 209.367L44.5828 210.169C44.5479 210.258 44.5267 210.353 44.52 210.448C44.565 210.365 44.601 210.278 44.6276 210.187C44.6903 209.98 44.7799 209.728 44.8874 209.394L45.8373 206.358C46.6527 203.71 47.7996 199.872 49.1527 195.106C51.8409 185.584 55.3087 172.332 58.4359 157.539C60.5955 147.35 62.3428 137.764 63.7317 129.693V129.539L63.5883 129.476L46.2584 121.548L41.3928 119.359L40.1114 118.792L39.7351 118.603Z" fill="#263238"/>
<path d="M6.67027 197.404C6.73115 197.53 6.80313 197.65 6.88533 197.764L7.54842 198.782C7.8886 199.322 8.26273 199.839 8.6685 200.331C9.13446 200.917 9.62729 201.62 10.2725 202.295L11.2671 203.394C11.6166 203.773 12.0108 204.133 12.4051 204.521C13.1847 205.313 14.0987 206.052 15.0485 206.863C17.1743 208.531 19.4479 210 21.8407 211.25C24.2525 212.462 26.7726 213.442 29.3676 214.178C30.5683 214.475 31.7063 214.791 32.7995 214.953C33.3461 215.043 33.8659 215.16 34.3766 215.223L35.8462 215.376C36.7422 215.502 37.6383 215.493 38.3731 215.529C39.0086 215.571 39.6461 215.571 40.2817 215.529L41.4914 215.475C41.6286 215.485 41.7663 215.485 41.9036 215.475C41.7635 215.462 41.6225 215.462 41.4824 215.475H40.2817C39.6459 215.51 39.0088 215.51 38.3731 215.475C37.6383 215.421 36.787 215.421 35.8641 215.277L34.4125 215.106C33.9017 215.034 33.382 214.917 32.8443 214.827C31.7601 214.656 30.6311 214.331 29.4303 214.034C24.2619 212.567 19.4303 210.094 15.2098 206.755C14.2689 205.962 13.346 205.232 12.5216 204.449C12.1273 204.07 11.7241 203.719 11.3746 203.34C11.0251 202.962 10.6936 202.611 10.38 202.259C9.72585 201.593 9.2151 200.908 8.74019 200.34C8.33261 199.853 7.94979 199.345 7.59321 198.818L6.88533 197.836L6.67027 197.404Z" fill="#FAFAFA"/>
<path d="M13.2567 176.061C13.3066 176.191 13.3697 176.314 13.4449 176.431C13.5793 176.665 13.7585 177.034 14.0542 177.467C14.8514 178.71 15.7896 179.856 16.8499 180.881C18.4114 182.421 20.2046 183.704 22.1636 184.683C24.5612 185.9 27.1735 186.632 29.8518 186.836C32.5183 186.91 35.1866 186.789 37.8358 186.476C39.9887 186.243 42.1636 186.316 44.2964 186.692C45.7335 186.95 47.1082 187.482 48.3466 188.259C49.2427 188.818 49.6101 189.241 49.637 189.214C49.2677 188.815 48.8526 188.461 48.4004 188.16C47.1686 187.337 45.7854 186.77 44.3322 186.494C42.1851 186.089 39.9915 185.995 37.8179 186.214C35.1795 186.512 32.5238 186.626 29.8697 186.557C27.2276 186.357 24.6497 185.64 22.2801 184.449C20.3336 183.496 18.5469 182.243 16.9843 180.737C15.9259 179.73 14.9767 178.612 14.1528 177.404C13.8481 176.989 13.6599 176.629 13.4986 176.404C13.4254 176.284 13.3446 176.17 13.2567 176.061Z" fill="#FAFAFA"/>
<path d="M55.676 166.692C55.676 166.692 55.1922 166.692 54.3319 166.692C53.1154 166.663 51.9089 166.463 50.7477 166.098C49.0326 165.547 47.4036 164.755 45.9089 163.746C44.0824 162.488 42.343 161.106 40.7028 159.611C39.0583 158.11 37.329 156.705 35.5235 155.404C34.027 154.351 32.3964 153.506 30.6758 152.89C29.5216 152.48 28.3143 152.24 27.0915 152.179C26.6428 152.156 26.193 152.174 25.7474 152.233C25.7474 152.233 26.2313 152.233 27.0915 152.287C28.3163 152.388 29.5219 152.655 30.6758 153.08C32.3656 153.713 33.9653 154.568 35.4339 155.62C37.2253 156.928 38.9453 158.333 40.5863 159.827C42.2332 161.33 43.985 162.712 45.8283 163.962C47.3498 164.976 49.01 165.762 50.7566 166.296C51.9376 166.645 53.1638 166.815 54.3947 166.8C54.8242 166.805 55.2532 166.769 55.676 166.692Z" fill="#FAFAFA"/>
<path d="M37.8003 130.26C37.8126 130.347 37.8368 130.432 37.872 130.512C37.9588 130.751 38.0636 130.983 38.1856 131.206C38.648 132.03 39.2552 132.762 39.9777 133.368C41.0395 134.267 42.2537 134.966 43.562 135.431C45.1601 135.972 46.8183 136.314 48.4993 136.449C50.2914 136.638 51.9671 136.71 53.4904 136.882C54.844 137.012 56.1841 137.26 57.4958 137.62C58.3732 137.876 59.2227 138.22 60.0317 138.647C60.6052 138.954 60.9277 139.161 60.9277 139.134C60.8662 139.071 60.7969 139.017 60.7216 138.972C60.5207 138.819 60.3113 138.677 60.0944 138.548C59.295 138.078 58.444 137.703 57.5585 137.431C56.2418 137.038 54.8921 136.766 53.5262 136.62C51.994 136.44 50.3004 136.35 48.5351 136.17C46.8777 136.035 45.2416 135.706 43.6606 135.188C42.3809 134.743 41.189 134.075 40.139 133.215C39.152 132.416 38.3533 131.406 37.8003 130.26Z" fill="#FAFAFA"/>
</svg>
