<svg width="210" height="284" viewBox="0 0 210 284" fill="none" xmlns="http://www.w3.org/2000/svg">
<g filter="url(#filter0_d_85_1777)">
<path d="M181.589 230.633C181.589 230.633 179.064 236.627 179.936 242.001C180.807 247.375 179.823 253.729 182.062 254.845C184.301 255.962 185.268 254.668 185.398 252.152C185.527 249.637 185.808 245.763 185.881 242.792C185.875 241.528 185.952 240.266 186.112 239.013L187.068 230.946L181.589 230.633Z" fill="#FFBF9D"/>
<path d="M191.281 227.125C191.281 227.125 194.791 241.818 194.78 243.661C194.769 245.503 193.655 248.031 193.655 248.031C193.655 248.031 192.592 254.474 192.018 255.253C191.444 256.033 185.701 257.043 185.701 257.043L182.039 254.846L183.524 251.503L186.68 252.046L187.411 249.289L185.358 246.1L183.608 230.745L191.281 227.125Z" fill="#FFBF9D"/>
<path d="M187.619 238.464C187.582 238.722 187.518 238.976 187.428 239.22C187.293 239.704 187.085 240.401 186.865 241.269C186.299 243.529 185.922 245.837 185.74 248.167C185.684 248.852 185.656 249.519 185.634 250.163C185.631 250.79 185.594 251.417 185.521 252.041C185.483 252.587 185.33 253.117 185.072 253.594C184.814 254.07 184.458 254.479 184.03 254.793C183.728 254.989 183.381 255.096 183.025 255.102C182.67 255.108 182.319 255.014 182.011 254.828C181.848 254.722 181.707 254.583 181.595 254.421C181.554 254.367 181.525 254.304 181.51 254.237C181.671 254.43 181.861 254.593 182.073 254.722C182.365 254.873 182.69 254.942 183.015 254.922C183.34 254.902 183.655 254.795 183.929 254.61C184.317 254.302 184.637 253.91 184.867 253.46C185.097 253.011 185.232 252.514 185.262 252.005C185.325 251.391 185.355 250.774 185.352 250.157C185.352 249.507 185.397 248.834 185.454 248.143C185.631 245.79 186.04 243.463 186.674 241.198C186.916 240.33 187.152 239.645 187.321 239.173C187.399 238.927 187.499 238.69 187.619 238.464Z" fill="#FF9A6C"/>
<path d="M181.59 230.633L179.053 221.556C179.053 221.556 188.317 214.682 188.824 215.131C189.33 215.58 191.636 228.714 191.636 228.714L186.883 234.07L181.59 230.633Z" fill="#FFBF9D"/>
<path d="M163.015 95.8752C159.877 90.9087 143.384 86.0662 143.384 86.0662L147.811 89.9461L157.373 144.117L178.524 223.972L195 220.735C195 220.735 173.698 112.735 163.015 95.8752Z" fill="#47BE7D"/>
<path d="M172.493 202.269L133.55 222.348C133.55 222.348 130.456 246.69 133.117 263.485H168.331C177.263 231.229 172.493 202.269 172.493 202.269Z" fill="#263238"/>
<path d="M139.237 225.254L98.2863 190.352C98.2863 190.352 81.8326 216.637 87.0359 242.787C87.8122 246.708 90.276 257.834 91.8904 263.492H140.267C139.012 245.008 139.237 225.254 139.237 225.254Z" fill="#263238"/>
<path d="M172.684 202.842C172.836 202.783 139.608 228.336 139.608 228.336L95.0627 196.582L103.281 180.047C103.281 180.047 126.074 190.275 137.887 187.712C149.7 185.149 162.638 174.076 162.638 174.076C165.585 180.72 170.867 195.478 172.684 202.842Z" fill="#263238"/>
<path d="M150.673 209.308L150.071 210.182L147.759 213.625C145.74 216.661 142.809 221.072 139.108 226.653L139.074 226.7V226.759C139.496 231.631 139.637 237.3 139.94 243.602C140.244 249.903 140.019 256.068 140.357 263.521H140.829C140.464 256.068 140.649 249.938 140.346 243.607C140.042 237.277 139.839 231.678 139.389 226.812L147.894 213.749L150.145 210.259L150.707 209.355C150.778 209.259 150.838 209.154 150.887 209.042C150.809 209.125 150.738 209.214 150.673 209.308Z" fill="#455A64"/>
<path d="M148.721 25.9189C150.933 27.7861 152.683 30.1857 153.822 32.9142C154.962 35.6426 155.458 38.6195 155.269 41.5922C155.055 44.4681 154.301 47.7575 156.085 49.9544C157.868 52.1512 161.316 52.0626 163.004 54.3008C164.995 56.9347 163.33 60.8559 164.044 64.1394C164.424 65.6723 165.313 67.0125 166.55 67.9186C167.788 68.8248 169.293 69.2374 170.794 69.0823C167.267 72.0909 163.018 74.0217 158.515 74.663L155.083 70.0331C156.383 71.6571 156.04 74.2378 154.78 75.8913C153.52 77.5449 151.573 78.4484 149.649 79.0921C145.024 80.5839 140.133 80.9337 135.358 80.1142C130.582 79.2947 126.052 77.3281 122.12 74.3677" fill="#263238"/>
<path d="M97.1837 51.3477C97.8756 49.139 99.0231 47.0957 99.49 44.8516C100.48 39.9737 98.2187 34.4816 100.469 30.0879C102.078 26.9638 105.492 25.4343 108.727 24.389C111.961 23.3438 115.426 22.4579 117.839 19.9658C119.606 18.141 120.613 15.6253 122.373 13.7887C124.882 11.1784 128.589 10.2926 132.122 10.0623C135.744 9.83197 139.491 10.1981 142.748 11.8753C146.005 13.5524 148.71 16.706 149.29 20.4678C149.577 22.3044 149.363 24.2237 149.914 25.9894C150.516 27.9324 151.967 29.4442 152.867 31.2572C153.77 33.2051 154.031 35.4126 153.61 37.5331C153.188 39.6537 152.108 41.5673 150.538 42.9737L125.664 76.7C120.438 78.7729 107.776 76.2689 103.726 72.2178C99.6757 68.1666 95.4512 56.9461 97.1837 51.3477Z" fill="#263238"/>
<path d="M149.881 38.639C148.857 30.9618 143.31 21.9323 136.065 23.3319L113.699 31.2453C111.5 31.6705 113.075 35.4382 113.289 37.7768L118.155 90.7255C118.115 90.7255 115.134 92.9873 114.054 92.5562C113.993 92.5315 113.927 92.5279 113.864 92.5458C113.801 92.5637 113.746 92.6023 113.706 92.6558C113.665 92.7093 113.642 92.775 113.64 92.8432C113.638 92.9113 113.657 92.9784 113.694 93.0346C116.377 97.1271 129.056 115.027 142.123 109.57C145.043 108.353 141.814 98.698 142.157 95.1192L141.769 85.9775C141.482 81.3122 141.342 79.4047 141.347 79.446C141.353 79.4874 150.589 77.0838 151.591 64.0917C152.091 57.6075 151.022 47.1724 149.881 38.639Z" fill="#FFBF9D"/>
<path d="M146.128 50.1963C146.162 50.6234 146.035 51.0472 145.776 51.378C145.516 51.7088 145.145 51.9205 144.739 51.9682C144.541 52.0008 144.339 51.9914 144.145 51.9406C143.95 51.8899 143.767 51.7988 143.607 51.6728C143.447 51.5467 143.312 51.3883 143.211 51.2067C143.109 51.0252 143.044 50.8242 143.018 50.6157C142.984 50.1895 143.11 49.7664 143.368 49.4358C143.627 49.1052 143.997 48.8928 144.402 48.8437C144.6 48.8112 144.802 48.8205 144.997 48.8712C145.192 48.9218 145.375 49.0128 145.536 49.1388C145.697 49.2648 145.832 49.4232 145.934 49.6048C146.035 49.7864 146.102 49.9875 146.128 50.1963Z" fill="#263238"/>
<path d="M130.794 51.041C130.827 51.468 130.701 51.8919 130.441 52.2227C130.182 52.5535 129.81 52.7652 129.405 52.8129C129.207 52.8454 129.004 52.836 128.81 52.7853C128.616 52.7346 128.433 52.6435 128.272 52.5175C128.112 52.3914 127.977 52.233 127.876 52.0514C127.775 51.8699 127.709 51.6689 127.683 51.4603C127.65 51.0333 127.776 50.6094 128.036 50.2786C128.295 49.9478 128.667 49.7361 129.073 49.6884C129.271 49.6559 129.473 49.6653 129.667 49.716C129.862 49.7667 130.044 49.8578 130.205 49.9839C130.365 50.1099 130.5 50.2683 130.601 50.4499C130.702 50.6314 130.768 50.8324 130.794 51.041Z" fill="#263238"/>
<path d="M148.884 45.0233C148.716 45.3304 147.259 44.3617 145.431 44.6393C143.602 44.9169 142.432 46.2341 142.196 45.986C142.078 45.8797 142.196 45.3954 142.731 44.7575C143.388 43.9837 144.287 43.4814 145.265 43.3406C146.243 43.1999 147.237 43.43 148.069 43.9896C148.71 44.4326 148.969 44.8874 148.884 45.0233Z" fill="#263238"/>
<path d="M132.493 46.4465C132.279 46.7241 130.845 45.6314 128.882 45.72C126.919 45.8085 125.507 46.9721 125.299 46.7122C125.192 46.5941 125.4 46.1216 126.007 45.5309C126.814 44.8374 127.817 44.4429 128.859 44.4087C129.891 44.3651 130.907 44.6853 131.745 45.3183C132.369 45.844 132.6 46.3165 132.493 46.4465Z" fill="#263238"/>
<path d="M138.647 58.5821C138.647 58.4817 139.665 58.2041 141.347 57.8439C141.775 57.7612 142.174 57.6372 142.225 57.3242C142.229 56.8544 142.095 56.3945 141.842 56.0073C141.358 54.9443 140.846 53.834 140.318 52.6648C138.191 47.9403 136.616 43.9837 136.796 43.8951C136.976 43.8065 138.855 47.5919 140.981 52.3518L142.455 55.712C142.767 56.2406 142.891 56.8684 142.804 57.4837C142.753 57.6472 142.667 57.7965 142.553 57.9202C142.439 58.044 142.3 58.139 142.146 58.1982C141.914 58.2862 141.672 58.3418 141.426 58.3636C139.721 58.588 138.664 58.6825 138.647 58.5821Z" fill="#263238"/>
<path d="M141.347 79.4339C135.6 79.9919 129.818 78.8634 124.646 76.1741C124.646 76.1741 129.422 84.8434 141.561 82.6701L141.347 79.4339Z" fill="#FF9A6C"/>
<path d="M133.505 63.7493C133.698 63.315 133.997 62.942 134.371 62.6685C134.823 62.4342 135.341 62.3796 135.828 62.5149C136.552 62.6316 137.222 62.9874 137.741 63.5308C137.993 63.8078 138.17 64.1502 138.254 64.5229C138.338 64.8956 138.326 65.2851 138.219 65.6512C138.033 66.3954 136.981 66.7971 136.261 66.9329C135.53 67.0339 134.788 66.8692 134.158 66.4663C133.877 66.336 133.632 66.1344 133.445 65.8797C133.257 65.625 133.133 65.3252 133.083 65.0074C133.106 64.5542 133.252 64.1175 133.505 63.7493Z" fill="#FF9A6C"/>
<path d="M133.849 61.257C134.124 61.2157 134.265 63.1353 135.935 64.3756C137.606 65.616 139.53 65.2439 139.564 65.5097C139.603 65.6278 139.159 65.9231 138.337 66.0117C137.266 66.1136 136.195 65.8167 135.311 65.173C134.462 64.5548 133.878 63.6108 133.685 62.5446C133.556 61.7472 133.725 61.257 133.849 61.257Z" fill="#263238"/>
<path d="M132.346 39.519C132.217 40.0151 130.513 39.9206 128.555 40.3281C126.597 40.7357 125.034 41.4386 124.741 41.0251C124.612 40.8302 124.854 40.3518 125.467 39.8438C126.286 39.2027 127.234 38.7662 128.238 38.5677C129.242 38.3691 130.276 38.4137 131.261 38.698C132.009 38.9342 132.403 39.2827 132.346 39.519Z" fill="#263238"/>
<path d="M147.844 38.5506C147.535 38.9759 146.156 38.6688 144.581 38.7751C143.006 38.8814 141.651 39.283 141.308 38.8873C141.161 38.6983 141.341 38.2967 141.904 37.8478C142.679 37.3111 143.58 37.0087 144.508 36.9736C145.43 36.9074 146.352 37.1119 147.169 37.5643C147.765 37.9423 147.979 38.338 147.844 38.5506Z" fill="#263238"/>
<path d="M108.755 33.0938C109.88 31.269 111.911 30.33 113.818 29.5505C122.167 26.167 130.87 23.8415 139.744 22.6233C140.869 24.5308 139.829 27.1292 138.163 28.5288C136.498 29.9284 134.361 30.4658 132.37 31.2512C130.378 32.0367 128.336 33.2355 127.515 35.2965C126.643 37.4874 127.38 40.08 126.615 42.3122C125.293 46.1567 120.185 47.391 118.886 51.2414C117.907 54.1587 119.516 57.2532 119.915 60.3181C120.124 61.8747 120.013 63.46 119.591 64.968C119.168 66.4759 118.444 67.8718 117.466 69.0621C116.488 70.2525 115.28 71.2098 113.921 71.8702C112.562 72.5305 111.085 72.8785 109.588 72.891C108.988 61.8673 108.382 50.8437 107.771 39.8201C107.647 37.4934 107.563 35.0189 108.755 33.0938Z" fill="#263238"/>
<path d="M87.593 60.9499C89.2525 59.3849 91.3338 58.0384 91.9976 55.8062C92.9595 52.5522 90.4675 48.7195 92.0707 45.7668C93.5332 43.068 97.8365 43.2038 99.1978 40.4518C100.261 38.2963 99.0403 36.3888 99.4453 34.4991C99.8503 32.6093 102.404 30.9558 104.238 31.1684L118.582 53.0188C119.915 60.3416 121.254 64.2392 119.758 68.5207C118.936 70.8829 117.868 73.1565 117.547 75.6368C117.226 78.1172 117.828 80.9518 119.758 82.3927C111.179 83.1014 103.147 78.3888 95.7158 73.8298L87.8406 69.0109C86.983 68.5777 86.2409 67.9285 85.6805 67.1211C84.5442 65.0837 85.9392 62.5089 87.593 60.9499Z" fill="#263238"/>
<path d="M95.5012 71.5916C95.7992 71.689 96.1069 71.7505 96.4181 71.7747C97.3131 71.8714 98.2173 71.8034 99.0901 71.5739C100.484 71.2253 101.768 70.5006 102.814 69.4715C104.196 68.0761 105.063 66.212 105.261 64.2097C105.389 63.05 105.293 61.8751 104.98 60.755C104.596 59.5684 104.06 58.442 103.388 57.4066C102.683 56.3385 102.13 55.1689 101.745 53.9341C101.43 52.6822 101.43 51.194 102.206 50.1192C102.983 49.0444 104.456 48.755 105.778 48.1822C106.508 47.907 107.144 47.4119 107.607 46.7589C108.025 46.0527 108.222 45.2265 108.169 44.3967C108.169 42.7491 107.483 41.2373 107.196 39.7078C107.03 38.9499 107.03 38.1625 107.196 37.4046C107.388 36.6611 107.827 36.014 108.433 35.5798C109.671 34.6526 111.246 34.505 112.776 34.3633C114.334 34.3033 115.852 33.8342 117.192 32.9991C118.481 32.1629 119.528 30.9723 120.218 29.5562C120.803 28.1866 121.182 26.7305 121.343 25.2393C121.487 23.8637 121.768 22.5078 122.181 21.194C122.629 19.9896 123.318 18.9001 124.201 17.9991C125.667 16.5076 127.547 15.5432 129.568 15.245C131.59 14.9468 133.65 15.3301 135.451 16.3397C136.692 17.0099 137.81 17.9056 138.753 18.9853C139.544 19.923 140.229 20.9534 140.795 22.0562C140.775 21.9744 140.747 21.8951 140.711 21.82C140.643 21.6723 140.564 21.442 140.413 21.1586C139.995 20.3283 139.486 19.5531 138.894 18.8495C137.959 17.7222 136.836 16.7836 135.581 16.0798C133.906 15.1243 132.009 14.6842 130.107 14.8101C127.794 15.0039 125.611 16.0181 123.92 17.6861C122.983 18.6242 122.252 19.7647 121.776 21.0286C121.346 22.3707 121.05 23.7561 120.893 25.1625C120.735 26.5914 120.367 27.9859 119.802 29.2964C119.148 30.6285 118.16 31.7476 116.944 32.5326C115.667 33.3252 114.22 33.766 112.737 33.8141C111.235 33.9558 109.542 34.0916 108.158 35.1251C107.453 35.6249 106.946 36.3761 106.729 37.2393C106.546 38.0748 106.546 38.9431 106.729 39.7786C107.044 41.4026 107.691 42.8613 107.702 44.3731C107.741 45.0997 107.567 45.8214 107.202 46.44C106.795 47.0138 106.235 47.4476 105.593 47.6861C104.952 47.9696 104.26 48.1644 103.596 48.4597C102.905 48.7269 102.297 49.1862 101.835 49.7885C101.452 50.4074 101.207 51.1088 101.117 51.8407C101.028 52.5727 101.096 53.3164 101.318 54.0168C101.715 55.2952 102.294 56.5035 103.033 57.6014C103.692 58.6023 104.222 59.6906 104.608 60.8377C104.914 61.9047 105.015 63.0246 104.907 64.1329C104.73 66.0588 103.918 67.8594 102.611 69.2235C101.607 70.2376 100.374 70.9671 99.0282 71.3436C97.8783 71.6614 96.6812 71.7456 95.5012 71.5916Z" fill="#455A64"/>
<path d="M84.0662 56.072C83.9226 56.2944 83.8248 56.5458 83.7793 56.8102C83.6428 57.577 83.7746 58.3697 84.1506 59.0425C84.4178 59.5252 84.7946 59.9309 85.2475 60.2236C85.7977 60.5744 86.4321 60.7526 87.0757 60.7374C87.8602 60.7205 88.6253 60.4781 89.2878 60.0367C89.9503 59.5952 90.4848 58.9715 90.8333 58.2334C91.2428 57.3823 91.453 56.4409 91.4464 55.4874C91.416 54.4732 91.2121 53.473 90.8445 52.5346C90.1639 50.5858 88.9263 48.6901 88.8982 46.4106C88.8579 45.8511 88.9253 45.2887 89.0963 44.7571C89.2674 44.2254 89.5386 43.7354 89.8939 43.3161C90.6589 42.5071 91.8402 42.3063 93.0102 42.2945C94.1803 42.2827 95.4684 42.4126 96.7285 41.8929C97.3585 41.62 97.8915 41.1472 98.2529 40.5405C98.5978 39.9355 98.811 39.2579 98.8773 38.5563C98.9363 37.2133 98.8323 35.8678 98.5679 34.5524C98.3829 33.3151 98.4519 32.0506 98.7704 30.8437C99.3826 28.5438 100.809 26.5767 102.759 25.3457C104.621 24.1646 106.769 24.0405 108.704 23.9165C110.639 23.7925 112.541 23.6803 114.133 23.0189C115.565 22.4524 116.873 21.5887 117.98 20.4795C118.815 19.6528 119.525 18.6969 120.084 17.6449C120.583 16.7633 120.927 15.7954 121.102 14.7866C120.788 15.7403 120.391 16.6615 119.915 17.5386C118.57 19.9164 116.486 21.7365 114.015 22.6941C112.473 23.2846 110.639 23.4146 108.682 23.5091C106.724 23.6035 104.514 23.7098 102.528 24.95C100.463 26.2327 98.9483 28.3011 98.2979 30.7256C97.9574 32.001 97.8826 33.3384 98.0785 34.6468C98.236 35.946 98.5341 37.2394 98.3823 38.5149C98.3599 39.1323 98.1758 39.7312 97.8503 40.2459C97.5248 40.7605 97.0705 41.171 96.5372 41.4323C95.4515 41.8929 94.2084 41.7689 92.999 41.8043C91.7896 41.8397 90.462 42.0228 89.5564 42.9854C89.156 43.4526 88.8499 44.0001 88.6565 44.5949C88.4632 45.1896 88.3866 45.8193 88.4313 46.446C88.4816 47.6076 88.7492 48.7474 89.2189 49.8004C89.6351 50.822 90.0964 51.7669 90.4508 52.7177C90.812 53.6128 91.0159 54.5691 91.0527 55.5405C91.0619 56.4315 90.8691 57.3121 90.4901 58.1094C90.1758 58.7951 89.689 59.3776 89.0823 59.794C88.4755 60.2103 87.7719 60.4446 87.0475 60.4716C86.458 60.4936 85.874 60.3445 85.36 60.0405C84.9302 59.7686 84.5694 59.3918 84.3081 58.9421C83.9338 58.3116 83.7788 57.5647 83.8693 56.8279C83.9198 56.5719 83.9855 56.3194 84.0662 56.072Z" fill="#263238"/>
<path d="M174.451 61.4521C174.699 62.2197 174.689 63.0535 174.423 63.8144C174.278 64.2486 174.044 64.6438 173.737 64.9716C173.429 65.2994 173.057 65.5516 172.645 65.71C172.092 65.8821 171.504 65.8887 170.948 65.7291C170.391 65.5695 169.888 65.2499 169.495 64.8065C169.045 64.2901 168.783 63.6224 168.758 62.9226C168.731 62.1481 168.842 61.3751 169.085 60.6431C169.54 59.1195 170.468 57.46 170.328 55.4758C170.263 54.4644 169.997 53.4785 169.548 52.5815C169.098 51.6844 168.475 50.8961 167.718 50.2671C166.924 49.6026 166.017 49.1017 165.046 48.7907C164.051 48.4994 163.024 48.3445 161.991 48.3301C160.996 48.3205 160.003 48.2117 159.027 48.0053C158.112 47.8064 157.295 47.2726 156.72 46.4994C156.207 45.7127 155.916 44.7892 155.882 43.836C155.835 42.9044 155.911 41.9703 156.107 41.0604C156.456 39.2888 156.974 37.5171 156.878 35.7927C156.786 34.2027 156.246 32.6773 155.325 31.4108C154.546 30.4045 153.591 29.5628 152.513 28.9305C151.725 28.4513 150.973 27.9104 150.263 27.3124C149.677 26.7863 149.199 26.1415 148.856 25.4167C148.861 25.4718 148.874 25.5257 148.896 25.5762C148.94 25.7268 148.996 25.873 149.065 26.0132C149.329 26.5649 149.692 27.0581 150.133 27.466C150.826 28.0971 151.565 28.6698 152.344 29.1786C153.37 29.8173 154.274 30.6503 155.01 31.6352C155.873 32.8448 156.374 34.2958 156.45 35.8045C156.524 37.4285 156.017 39.1234 155.646 40.9541C155.432 41.9073 155.349 42.8877 155.399 43.8655C155.43 44.9214 155.748 45.9458 156.315 46.8183C156.956 47.6912 157.871 48.2962 158.897 48.525C159.905 48.7388 160.93 48.8535 161.957 48.8675C162.947 48.8666 163.932 49.0016 164.888 49.2691C165.801 49.5595 166.653 50.0262 167.403 50.6451C168.109 51.2282 168.692 51.9594 169.114 52.7922C169.536 53.6249 169.789 54.5409 169.855 55.4817C170.007 57.2947 169.146 58.8892 168.68 60.4895C168.43 61.2748 168.322 62.1017 168.359 62.9285C168.404 63.7159 168.711 64.4618 169.225 65.0368C169.665 65.5231 170.227 65.8684 170.847 66.0325C171.466 66.1966 172.117 66.1729 172.724 65.964C173.442 65.6568 174.032 65.0924 174.391 64.3712C174.749 63.6499 174.852 62.8186 174.682 62.025C174.634 61.8226 174.556 61.6294 174.451 61.4521Z" fill="#263238"/>
<path d="M150.859 88.8712C150.859 88.8712 162.469 109.753 166.637 119.544C168.955 124.995 169.523 135.294 165.687 151.074C162.812 162.885 168.882 178.936 169.804 181.233C171.886 186.424 158.582 193.706 156.726 194.993C140.272 206.379 103.388 185.468 103.388 185.468L113.513 161.686L104.974 141.607L101.807 89.3023L117.558 83.5444C125.922 87.8673 138.287 87.9736 141.701 85.4637L150.859 88.8712Z" fill="#47BE7D"/>
<path d="M149.408 198.389L149.661 198.312L150.403 198.129L151.618 197.84L153.233 197.291C153.846 197.102 154.482 196.771 155.207 196.476C155.933 196.18 156.659 195.732 157.457 195.295C159.242 194.234 160.936 193.013 162.52 191.645C164.434 189.978 166.184 188.114 167.746 186.082C167.965 185.81 168.156 185.521 168.365 185.238C168.573 184.954 168.77 184.647 168.961 184.358C169.152 184.068 169.343 183.767 169.523 183.436C169.617 183.283 169.699 183.124 169.771 182.958L169.889 182.716L169.951 182.474C169.995 181.726 169.948 180.976 169.81 180.242C169.692 179.486 169.546 178.718 169.377 177.944C168.713 174.856 167.853 171.649 166.975 168.318C166.531 166.653 166.081 164.964 165.648 163.24C165.428 162.371 165.214 161.503 165.029 160.618C164.933 160.175 164.849 159.726 164.793 159.259C164.755 158.8 164.74 158.339 164.748 157.877C164.809 154.21 165.175 150.673 165.529 147.247C166.941 141.389 168.179 135.832 168.387 130.712C168.442 129.48 168.397 128.245 168.252 127.021C168.066 125.878 167.806 124.75 167.476 123.643C166.898 121.663 166.203 119.722 165.394 117.832C164.239 115.125 162.911 112.502 161.417 109.984C160.894 109.098 160.472 108.431 160.18 107.976C160.045 107.757 159.932 107.592 159.854 107.462C159.811 107.408 159.775 107.348 159.747 107.285L159.876 107.45C159.955 107.557 160.073 107.722 160.225 107.946C160.529 108.389 160.967 109.051 161.502 109.931C163.045 112.436 164.41 115.057 165.586 117.773C166.413 119.663 167.121 121.608 167.706 123.596C168.05 124.711 168.318 125.849 168.511 127.003C168.661 128.243 168.712 129.493 168.663 130.742C168.466 135.879 167.234 141.454 165.85 147.312C165.501 150.726 165.13 154.275 165.074 157.907C165.066 158.358 165.081 158.81 165.119 159.259C165.175 159.696 165.254 160.139 165.349 160.582C165.535 161.456 165.743 162.354 165.963 163.186C166.396 164.911 166.846 166.606 167.285 168.271C168.162 171.596 169.017 174.808 169.675 177.915C169.844 178.688 169.985 179.462 170.103 180.23C170.246 180.992 170.291 181.77 170.238 182.545C170.21 182.645 170.187 182.751 170.159 182.846L170.035 183.106C169.959 183.277 169.873 183.442 169.776 183.602C169.591 183.927 169.405 184.24 169.214 184.535C169.023 184.83 168.82 185.125 168.606 185.421C168.393 185.716 168.201 186.011 167.982 186.271C166.404 188.311 164.633 190.177 162.694 191.84C161.093 193.208 159.38 194.425 157.575 195.478C156.76 195.891 156.012 196.322 155.292 196.629C154.572 196.936 153.913 197.22 153.295 197.427L151.669 197.94C151.185 198.058 150.775 198.135 150.443 198.212L149.695 198.366L149.408 198.389Z" fill="#263238"/>
<g opacity="0.3">
<path d="M169.355 175.854C167.294 167.242 166.769 158.304 167.808 149.491C168.657 142.346 170.03 135.1 168.567 128.066C168.618 134.562 167.335 139.588 165.687 147.277C164.14 154.517 165.125 158.037 165.22 160.753" fill="black"/>
</g>
<path opacity="0.3" d="M103.388 185.468C103.388 185.468 106.42 186.92 109.205 182.456C111.989 177.991 115.387 163.044 115.831 161.474C116.129 160.458 117.175 129.141 117.175 129.141L112.321 158.863L113.536 161.716C112.107 165.779 110.932 167.621 109.508 171.542C107.444 177.218 105.16 184.44 103.388 185.468Z" fill="black"/>
<path d="M116.18 128.91C116.18 128.91 111.191 180.223 103.389 185.467C101.442 186.778 99.0742 187.192 96.6385 187.073C87.9083 186.666 81.1243 178.906 81.0962 169.735C81.0962 158.851 82.8231 144.064 83.4925 137.981C84.8313 125.804 89.5339 92.6976 101.847 89.2901C114.161 85.8826 116.197 104.426 116.197 104.426L116.18 128.91Z" fill="#47BE7D"/>
<path d="M84.7913 86.0897C84.7913 86.0897 82.5413 89.2314 82.5413 92.5858C82.5413 93.5483 84.2288 100.511 84.2288 100.511L91.1984 106.139L104.215 110.55L103.174 118.186L114.374 120.182C114.374 120.182 114.599 111.141 114.374 105.418C114.149 99.696 107.624 93.9854 107.624 93.9854C107.624 93.9854 102.196 87.1172 99.8668 87.4893C97.538 87.8613 97.6505 90.5188 98.7417 92.0306C99.833 93.5424 102.955 97.1507 102.955 97.1507L90.0959 95.9696L86.2145 92.4794C86.2145 92.4794 87.497 88.9361 87.1033 87.7078C86.9743 87.1871 86.6675 86.7345 86.2411 86.4361C85.8147 86.1377 85.2987 86.0144 84.7913 86.0897Z" fill="#FFBF9D"/>
<path d="M86.136 95.71C86.5654 95.9207 86.9726 96.178 87.351 96.4778C88.0767 96.9858 89.078 97.7004 90.1636 98.5096L90.383 98.6691H90.2142C91.153 98.0163 92.2962 97.7707 93.4037 97.984C93.7291 98.0453 94.0451 98.1525 94.3431 98.3029C94.5512 98.4151 94.6581 98.4978 94.6469 98.5096C94.6356 98.5214 94.1743 98.3029 93.3756 98.1966C92.3272 98.0506 91.264 98.3087 90.383 98.9231L90.2986 98.9821L90.2142 98.9231L89.9949 98.7577C88.9092 97.9544 87.9304 97.2043 87.2329 96.655C86.8385 96.3786 86.4711 96.0621 86.136 95.71Z" fill="#FF9A6C"/>
<path d="M85.6184 101.338C85.6859 101.379 82.4683 107.627 78.435 115.298C74.4018 122.97 71.066 129.153 70.9929 129.111C70.9198 129.07 74.1374 122.822 78.1763 115.151C82.2151 107.48 85.5734 101.297 85.6184 101.338Z" fill="#263238"/>
<path d="M91.8344 96.0405C91.9132 96.0405 91.6713 101.946 91.2719 109.157C90.8725 116.367 90.5181 122.267 90.4394 122.261C90.3606 122.255 90.5969 116.385 91.0019 109.139C91.4069 101.893 91.7613 96.0346 91.8344 96.0405Z" fill="#263238"/>
<path d="M92.3632 96.1824C92.4476 96.1824 92.982 102.608 93.567 110.539C94.152 118.47 94.5514 124.913 94.4726 124.919C94.3939 124.924 93.8539 118.499 93.2745 110.562C92.6951 102.625 92.2844 96.1883 92.3632 96.1824Z" fill="#263238"/>
<path d="M27.7976 208.552L62.4036 124.865L103.102 114.33L69.137 203.715L27.7976 208.552Z" fill="#455A64"/>
<path d="M45.7644 217.783L27.7976 208.553L69.137 203.716L92.1045 215.114L45.7644 217.783Z" fill="#455A64"/>
<path opacity="0.3" d="M45.7644 217.783L27.7976 208.553L69.137 203.716L92.1045 215.114L45.7644 217.783Z" fill="black"/>
<path d="M103.102 114.33L104.013 118.233L110.319 118.032L92.1045 215.113L69.137 203.715L103.102 114.33Z" fill="#455A64"/>
<path d="M103.101 114.33C103.101 114.33 103.067 114.442 102.988 114.66C102.91 114.879 102.792 115.204 102.64 115.617C102.325 116.467 101.869 117.702 101.278 119.284C100.075 122.479 98.3476 127.08 96.2157 132.761C91.9012 144.135 85.9554 159.832 79.3852 177.17L69.2599 203.745L69.0799 203.568L84.3128 195.554L84.4197 195.501L84.4591 195.613C86.8329 201.613 88.7511 206.479 90.0843 209.851C90.7424 211.522 91.2487 212.804 91.6031 213.725C91.7662 214.162 91.8956 214.499 91.9912 214.741C92.0868 214.983 92.1093 215.089 92.1093 215.089C92.1093 215.089 92.0531 214.977 91.9574 214.753L91.5468 213.749C91.1812 212.857 90.6524 211.564 89.9774 209.898L84.2678 195.725L84.4085 195.778L69.2205 203.839L68.9111 204.005L69.0405 203.662C72.0894 195.619 75.5207 186.583 79.1377 177.052C85.736 159.731 91.7156 144.046 96.0413 132.678C98.2183 127.015 99.9789 122.426 101.2 119.243C101.813 117.666 102.285 116.438 102.617 115.593C102.775 115.186 102.904 114.873 102.988 114.648C103.073 114.424 103.101 114.33 103.101 114.33Z" fill="#263238"/>
<path d="M104.012 118.233C104.086 118.233 99.7541 135.607 94.3259 156.991C88.8976 178.375 84.4481 195.725 84.3581 195.678C84.2681 195.631 88.6163 178.304 94.0446 156.914C99.4729 135.525 103.934 118.21 104.012 118.233Z" fill="#263238"/>
<path opacity="0.3" d="M103.102 114.33L104.013 118.233L84.3587 195.678L69.137 203.715L103.102 114.33Z" fill="black"/>
<path d="M82.8845 94.582C82.9464 94.6351 77.4675 100.984 70.6498 108.755C63.8321 116.527 58.2744 122.775 58.1957 122.716C58.1169 122.657 63.6127 116.314 70.4304 108.543C77.2481 100.771 82.8226 94.5229 82.8845 94.582Z" fill="#263238"/>
<path d="M15 188.61L49.606 116.946L90.2985 107.929L56.3337 184.464L15 188.61Z" fill="#47BE7D"/>
<path d="M32.9668 196.511L15 188.61L56.3337 184.464L79.3069 194.22L32.9668 196.511Z" fill="#47BE7D"/>
<path opacity="0.3" d="M32.9668 196.511L15 188.61L56.3337 184.464L79.3069 194.22L32.9668 196.511Z" fill="black"/>
<path d="M90.2985 107.929L91.2098 111.271L97.5212 111.1L79.3069 194.22L56.3337 184.464L90.2985 107.929Z" fill="#47BE7D"/>
<path d="M90.2982 107.929C90.2982 107.929 90.2645 108.029 90.1857 108.218L89.837 109.051C89.5107 109.795 89.0438 110.864 88.4476 112.24C87.2269 115.021 85.4718 119.019 83.3005 123.95C78.9298 133.836 72.894 147.478 66.2281 162.537C62.7462 170.374 59.4329 177.82 56.4572 184.523L56.2828 184.334L71.5102 177.484L71.6002 177.442L71.6452 177.537L77.2703 189.732C77.9229 191.167 78.4347 192.283 78.7835 193.057L79.1716 193.925C79.256 194.12 79.2954 194.226 79.2954 194.226C79.2954 194.226 79.2392 194.131 79.1435 193.936L78.7273 193.08L77.1635 189.785L71.4539 177.631L71.5889 177.685L56.401 184.594L56.0747 184.742L56.221 184.405C59.1967 177.702 62.4986 170.232 65.9694 162.407L83.1261 123.862C85.3312 118.942 87.1144 114.956 88.3575 112.192L89.792 109.027L90.1745 108.206C90.2476 108.017 90.2982 107.929 90.2982 107.929Z" fill="#263238"/>
<path d="M91.1986 111.277C91.2774 111.277 86.9403 126.165 81.5121 144.478C76.0838 162.791 71.623 177.613 71.5443 177.59C71.4655 177.566 75.8081 162.702 81.2308 144.383C86.6535 126.064 91.1311 111.241 91.1986 111.277Z" fill="#263238"/>
<path opacity="0.3" d="M90.2985 107.929L91.2098 111.271L71.5554 177.584L56.3337 184.464L90.2985 107.929Z" fill="black"/>
<path d="M66.2515 113.255C66.3911 113.203 66.534 113.162 66.679 113.131L67.9109 112.829L72.4504 111.772L87.4584 108.4L90.2709 107.81L90.4059 107.78L90.4397 107.916L91.3453 111.259L91.2047 111.152L97.5161 110.999H97.6736L97.6343 111.152C96.993 113.981 96.4642 116.326 96.0817 117.997C95.8961 118.788 95.7442 119.426 95.6373 119.887C95.5867 120.087 95.5417 120.253 95.508 120.383C95.4742 120.513 95.463 120.554 95.4517 120.548C95.4467 120.491 95.4467 120.434 95.4517 120.377C95.4517 120.241 95.508 120.076 95.5417 119.875L95.9299 117.961C96.2842 116.29 96.7793 113.934 97.3811 111.099L97.4993 111.253L91.1935 111.448H91.081L91.0528 111.341C90.7603 110.261 90.4509 109.144 90.1359 107.999L90.3103 108.105L87.4977 108.731L72.4729 112.015L67.9109 112.977L66.6677 113.219C66.5303 113.245 66.391 113.256 66.2515 113.255Z" fill="#263238"/>
<path d="M92.1486 102.602C91.7359 101.954 91.2526 101.36 90.7085 100.83C90.1045 100.288 89.4104 99.8676 88.661 99.59C88.2391 99.4305 87.7778 99.3656 87.2772 99.2002C87.0128 99.1189 86.7714 98.9709 86.574 98.7691C86.3781 98.5453 86.249 98.266 86.2028 97.966C86.1015 97.3754 86.1634 96.8557 86.0846 96.3478C86.0258 95.8623 85.9164 95.3851 85.7584 94.9246C85.6238 94.5055 85.4345 94.108 85.1959 93.7435C84.9928 93.4354 84.6948 93.2102 84.3521 93.1057C84.0773 93.0035 83.7775 93.0035 83.5027 93.1057C83.3018 93.1968 83.1425 93.3661 83.0583 93.5782C82.912 93.9384 82.9064 94.1687 82.8727 94.1687C82.8389 94.1687 82.8727 94.1097 82.8727 94.0034C82.8775 93.8417 82.9079 93.6821 82.9627 93.5309C83.0006 93.403 83.0631 93.2846 83.1463 93.183C83.2295 93.0815 83.3316 92.9989 83.4464 92.9404C83.7609 92.8213 84.1051 92.8213 84.4196 92.9404C84.81 93.0498 85.1532 93.2956 85.3927 93.6372C85.65 94.0172 85.8563 94.4325 86.0059 94.8715C86.1811 95.351 86.3019 95.8505 86.3659 96.3597C86.4447 96.8852 86.394 97.4522 86.484 97.9541C86.518 98.1963 86.6198 98.4225 86.7765 98.6037C86.9344 98.7687 87.1271 98.8922 87.3391 98.964C87.7834 99.1175 88.2785 99.1943 88.7172 99.3715C89.4917 99.6699 90.2028 100.125 90.8098 100.712C91.218 101.104 91.5704 101.555 91.8561 102.053C91.9818 102.217 92.0806 102.403 92.1486 102.602Z" fill="#FF9A6C"/>
<path d="M85.3985 86.1548C85.4323 86.1548 85.1454 86.5505 84.7742 87.1942C84.296 88.0382 83.9182 88.9406 83.6491 89.8812C83.0022 92.0898 82.9628 94.015 82.8616 93.9855C82.7978 93.5748 82.7978 93.156 82.8616 92.7453C82.932 91.7439 83.1075 90.7536 83.3847 89.7926C83.659 88.8245 84.0767 87.9078 84.6223 87.076C84.8226 86.7197 85.0861 86.4069 85.3985 86.1548Z" fill="#FF9A6C"/>
<path d="M86.9625 93.1467C87.0412 93.1822 85.5337 97.0266 83.5874 101.745C81.641 106.464 80.0266 110.249 79.9535 110.22C79.8804 110.19 81.3823 106.334 83.3286 101.621C85.2749 96.9085 86.8893 93.1113 86.9625 93.1467Z" fill="#263238"/>
<path d="M88.1104 94.1506C88.1835 94.1506 87.3566 97.564 86.2597 101.721C85.1628 105.879 84.2065 109.227 84.1277 109.204C84.049 109.18 84.8759 105.796 85.9784 101.639C87.081 97.4813 88.0316 94.1506 88.1104 94.1506Z" fill="#263238"/>
<path d="M106.212 97.6349C104.392 97.6014 102.576 97.4614 100.772 97.2156C98.9573 97.0858 97.1507 96.8512 95.3606 96.5127C97.1796 96.5537 98.9954 96.6957 100.8 96.938C102.614 97.0706 104.421 97.3032 106.212 97.6349Z" fill="#FF9A6C"/>
<path d="M104.226 92.0955C103.994 92.6017 103.662 93.0506 103.253 93.4129C102.844 93.7753 102.367 94.0429 101.852 94.1982C102.236 93.8307 102.642 93.4894 103.067 93.1764C103.714 92.6094 104.136 92.0424 104.226 92.0955Z" fill="#FF9A6C"/>
<path d="M110.324 119.456H110.459L110.853 119.515L112.383 119.787L118.154 120.861H118.233V120.944C117.485 128.149 116.107 139.7 113.733 152.55C112.72 158.019 111.601 163.18 110.481 167.869C109.362 172.558 108.439 176.798 107.106 180.188C106.442 181.865 105.649 183.377 104.575 184.322C103.706 185.175 102.698 185.857 101.599 186.336C100.906 186.633 100.177 186.832 99.4335 186.926C99.1744 186.964 98.9131 186.982 98.6516 186.979C98.7165 186.965 98.7823 186.955 98.8485 186.95C98.9779 186.95 99.1748 186.909 99.411 186.867C100.144 186.739 100.86 186.519 101.543 186.212C102.62 185.72 103.605 185.03 104.451 184.174C105.558 183.028 106.396 181.627 106.898 180.082C108.186 176.704 109.148 172.481 110.189 167.775C111.314 163.098 112.405 157.93 113.418 152.468C115.808 139.629 117.237 128.09 118.053 120.903L118.126 121.003L112.371 119.822L110.853 119.503L110.459 119.415C110.416 119.434 110.37 119.448 110.324 119.456Z" fill="#263238"/>
</g>
<defs>
<filter id="filter0_d_85_1777" x="0" y="0" width="210" height="283.521" filterUnits="userSpaceOnUse" color-interpolation-filters="sRGB">
<feFlood flood-opacity="0" result="BackgroundImageFix"/>
<feColorMatrix in="SourceAlpha" type="matrix" values="0 0 0 0 0 0 0 0 0 0 0 0 0 0 0 0 0 0 127 0" result="hardAlpha"/>
<feOffset dy="5"/>
<feGaussianBlur stdDeviation="7.5"/>
<feColorMatrix type="matrix" values="0 0 0 0 0 0 0 0 0 0 0 0 0 0 0 0 0 0 0.35 0"/>
<feBlend mode="normal" in2="BackgroundImageFix" result="effect1_dropShadow_85_1777"/>
<feBlend mode="normal" in="SourceGraphic" in2="effect1_dropShadow_85_1777" result="shape"/>
</filter>
</defs>
</svg>
