<svg xmlns="http://www.w3.org/2000/svg" width="70.97" height="71.001" viewBox="0 0 70.97 71.001">
  <defs>
    <style>
      .cls-1 {
        fill: #00d95f;
        fill-rule: evenodd;
      }
    </style>
  </defs>
  <path id="WA" class="cls-1" d="M1280.49,997.982a35.5,35.5,0,1,0,35.49,35.5A35.493,35.493,0,0,0,1280.49,997.982Zm1.61,55.078a20.289,20.289,0,0,1-9.69-2.47l-11.1,2.98,2.96-11.05A20.376,20.376,0,1,1,1282.1,1053.06Zm0-36.92a16.506,16.506,0,0,0-14.12,25.11l0.43,0.7-1.65,6.17,6.2-1.67,0.7,0.42A16.525,16.525,0,1,0,1282.1,1016.14Zm9.71,22.78a4.941,4.941,0,0,1-3.69,2.75,7.71,7.71,0,0,1-4.07-.65,16.513,16.513,0,0,1-3.5-1.66,20.089,20.089,0,0,1-5.62-5.21c-0.46-.63-0.89-1.29-1.29-1.97a10.69,10.69,0,0,1-1.24-2.86,6.154,6.154,0,0,1-.16-1.29,5.149,5.149,0,0,1,1.78-4.07,2.325,2.325,0,0,1,2.53-.37c0.86,0.48,1.31,1.7,1.71,2.56a4.24,4.24,0,0,1,.53,2.3,4.413,4.413,0,0,1-1.2,1.95,0.812,0.812,0,0,0-.1,1.11,13.226,13.226,0,0,0,6.6,5.65,0.732,0.732,0,0,0,.94-0.2c0.49-.61.98-1.8,1.73-2.11a3.45,3.45,0,0,1,2.92.66c0.79,0.47,2.09,1.04,2.3,2.01A2.338,2.338,0,0,1,1291.81,1038.92Z" transform="translate(-1245 -997.969)"/>
</svg>
