<svg xmlns="http://www.w3.org/2000/svg" width="27" height="28" viewBox="0 0 27 28">
  <defs>
    <style>
      .cls-1 {
        stroke: #000;
        stroke-linejoin: round;
        stroke-width: 1px;
        fill-rule: evenodd;
      }
    </style>
  </defs>
  <path id="CART_Button" data-name="CART Button" class="cls-1" d="M1049.34,1030.61a1.89,1.89,0,1,0,1.88,1.89A1.886,1.886,0,0,0,1049.34,1030.61Zm0,2.84a0.945,0.945,0,1,1,.94-0.95A0.947,0.947,0,0,1,1049.34,1033.45Zm8.46-2.84a1.89,1.89,0,1,0,1.89,1.89A1.893,1.893,0,0,0,1057.8,1030.61Zm0,2.84a0.945,0.945,0,1,1,.95-0.95A0.954,0.954,0,0,1,1057.8,1033.45Zm3.12-16.34a1.926,1.926,0,0,0-1.47-.67h-13.03l-0.19-1.24a1.888,1.888,0,0,0-1.88-1.59h-3.01v0.94h3.01a0.959,0.959,0,0,1,.95.78l1.98,12.78a1.912,1.912,0,0,0,1.87,1.56h10.07v-0.95h-10.07a0.982,0.982,0,0,1-.95-0.78l-0.17-1.11h10.43a1.93,1.93,0,0,0,1.88-1.63l0.99-6.6A1.867,1.867,0,0,0,1060.92,1017.11Zm-0.52,1.34-0.99,6.59a0.981,0.981,0,0,1-.95.85h-10.58l-1.31-8.5h12.88a0.975,0.975,0,0,1,.75.33A0.915,0.915,0,0,1,1060.4,1018.45Z" transform="translate(-1038 -1010)"/>
</svg>
