<svg xmlns="http://www.w3.org/2000/svg" width="28" height="27" viewBox="0 0 28 27">
  <defs>
    <style>
      .cls-1 {
        stroke: #000;
        stroke-linejoin: round;
        stroke-width: 1px;
        fill-rule: evenodd;
      }
    </style>
  </defs>
  <path id="HOME_Button" data-name="HOME Button" class="cls-1" d="M786.8,1033.81h-4.631a1.363,1.363,0,0,1-1.389-1.39v-6.94a0.442,0.442,0,0,0-.463-0.47h-4.63a0.442,0.442,0,0,0-.463.47v6.94a1.363,1.363,0,0,1-1.389,1.39H769.2a1.363,1.363,0,0,1-1.389-1.39v-8.43a1.331,1.331,0,0,1,.417-0.97l8.8-8.8a1.351,1.351,0,0,1,1.944,0l8.8,8.8a1.331,1.331,0,0,1,.417.97v8.43A1.363,1.363,0,0,1,786.8,1033.81Zm-11.113-9.72h4.63a1.363,1.363,0,0,1,1.389,1.39v6.94a0.434,0.434,0,0,0,.463.46H786.8a0.434,0.434,0,0,0,.463-0.46v-8.43a0.423,0.423,0,0,0-.139-0.32l-8.8-8.8a0.456,0.456,0,0,0-.648,0l-8.8,8.8a0.42,0.42,0,0,0-.139.32v8.43a0.434,0.434,0,0,0,.463.46h4.631a0.434,0.434,0,0,0,.463-0.46v-6.94A1.363,1.363,0,0,1,775.685,1024.09Z" transform="translate(-764 -1010)"/>
</svg>
