<svg width="18" height="18" viewBox="0 0 18 18" fill="none" xmlns="http://www.w3.org/2000/svg">
<path d="M2.8125 3.65625C2.8125 3.1905 3.1905 2.8125 3.65625 2.8125H7.03125C7.497 2.8125 7.875 3.1905 7.875 3.65625V7.03125C7.875 7.497 7.497 7.875 7.03125 7.875H3.65625C3.43247 7.875 3.21786 7.78611 3.05963 7.62787C2.90139 7.46964 2.8125 7.25503 2.8125 7.03125V3.65625ZM2.8125 10.9688C2.8125 10.503 3.1905 10.125 3.65625 10.125H7.03125C7.497 10.125 7.875 10.503 7.875 10.9688V14.3438C7.875 14.8095 7.497 15.1875 7.03125 15.1875H3.65625C3.43247 15.1875 3.21786 15.0986 3.05963 14.9404C2.90139 14.7821 2.8125 14.5675 2.8125 14.3438V10.9688ZM10.125 3.65625C10.125 3.1905 10.503 2.8125 10.9688 2.8125H14.3438C14.8095 2.8125 15.1875 3.1905 15.1875 3.65625V7.03125C15.1875 7.497 14.8095 7.875 14.3438 7.875H10.9688C10.745 7.875 10.5304 7.78611 10.3721 7.62787C10.2139 7.46964 10.125 7.25503 10.125 7.03125V3.65625Z" stroke="#3F3F3F" stroke-width="1.5" stroke-linecap="round" stroke-linejoin="round"/>
<path d="M5.0625 5.0625H5.625V5.625H5.0625V5.0625ZM5.0625 12.375H5.625V12.9375H5.0625V12.375ZM12.375 5.0625H12.9375V5.625H12.375V5.0625ZM10.125 10.125H10.6875V10.6875H10.125V10.125ZM10.125 14.625H10.6875V15.1875H10.125V14.625ZM14.625 10.125H15.1875V10.6875H14.625V10.125ZM14.625 14.625H15.1875V15.1875H14.625V14.625ZM12.375 12.375H12.9375V12.9375H12.375V12.375Z" stroke="#3F3F3F" stroke-width="1.5" stroke-linecap="round" stroke-linejoin="round"/>
</svg>
