<svg width="18" height="18" viewBox="0 0 18 18" fill="none" xmlns="http://www.w3.org/2000/svg">
<path d="M1.6875 14.0625C5.68921 14.0592 9.67351 14.5892 13.5353 15.6382C14.0805 15.7867 14.625 15.3817 14.625 14.8162V14.0625M2.8125 3.375V3.9375C2.8125 4.08668 2.75324 4.22976 2.64775 4.33525C2.54226 4.44074 2.39918 4.5 2.25 4.5H1.6875M1.6875 4.5V4.21875C1.6875 3.753 2.0655 3.375 2.53125 3.375H15.1875M1.6875 4.5V11.25M15.1875 3.375V3.9375C15.1875 4.248 15.4395 4.5 15.75 4.5H16.3125M15.1875 3.375H15.4688C15.9345 3.375 16.3125 3.753 16.3125 4.21875V11.5312C16.3125 11.997 15.9345 12.375 15.4688 12.375H15.1875M16.3125 11.25H15.75C15.6008 11.25 15.4577 11.3093 15.3523 11.4148C15.2468 11.5202 15.1875 11.6633 15.1875 11.8125V12.375M15.1875 12.375H2.8125M2.8125 12.375H2.53125C2.30747 12.375 2.09286 12.2861 1.93463 12.1279C1.77639 11.9696 1.6875 11.755 1.6875 11.5312V11.25M2.8125 12.375V11.8125C2.8125 11.6633 2.75324 11.5202 2.64775 11.4148C2.54226 11.3093 2.39918 11.25 2.25 11.25H1.6875M11.25 7.875C11.25 8.47174 11.0129 9.04403 10.591 9.46599C10.169 9.88795 9.59674 10.125 9 10.125C8.40326 10.125 7.83097 9.88795 7.40901 9.46599C6.98705 9.04403 6.75 8.47174 6.75 7.875C6.75 7.27826 6.98705 6.70597 7.40901 6.28401C7.83097 5.86205 8.40326 5.625 9 5.625C9.59674 5.625 10.169 5.86205 10.591 6.28401C11.0129 6.70597 11.25 7.27826 11.25 7.875V7.875ZM13.5 7.875H13.506V7.881H13.5V7.875ZM4.5 7.875H4.506V7.881H4.5V7.875Z" stroke="#3F3F3F" stroke-width="1.5" stroke-linecap="round" stroke-linejoin="round"/>
</svg>
